<svg width="70" height="70" viewBox="0 0 70 70" fill="none" xmlns="http://www.w3.org/2000/svg">
<rect width="70" height="70" rx="10" fill="#2F2BEB"/>
<g clip-path="url(#clip0_1_13534)">
<path d="M42.5 23.4327V22.4998C42.4989 21.4909 42.2945 20.4925 41.899 19.5644C41.5035 18.6362 40.9249 17.7973 40.1979 17.0977C39.4709 16.3982 38.6104 15.8524 37.6677 15.4928C36.725 15.1333 35.7195 14.9675 34.7113 15.0053C30.7349 15.1556 27.5 18.5934 27.5 22.6685V24.3748C27.5 24.5405 27.5658 24.6995 27.6831 24.8167C27.8003 24.9339 27.9592 24.9998 28.125 24.9998C28.2908 24.9998 28.4497 24.9339 28.5669 24.8167C28.6842 24.6995 28.75 24.5405 28.75 24.3748V22.6685C28.75 19.257 31.4453 16.3796 34.7583 16.2543C35.5985 16.2229 36.4365 16.3611 37.2221 16.6607C38.0077 16.9603 38.7249 17.4151 39.3308 17.9981C39.9367 18.581 40.419 19.2801 40.7487 20.0535C41.0785 20.827 41.2489 21.659 41.25 22.4998V23.4327C41.2495 23.5683 41.2052 23.7002 41.1235 23.8085C41.0419 23.9168 40.9274 23.9958 40.7971 24.0336L35.2966 25.61C35.1518 25.6515 35.0268 25.7439 34.9447 25.8703C34.8626 25.9966 34.8289 26.1484 34.8498 26.2976C34.8707 26.4468 34.9448 26.5835 35.0585 26.6824C35.1722 26.7813 35.3178 26.8358 35.4684 26.8359C35.5268 26.8359 35.5848 26.8277 35.6409 26.8114L41.1414 25.2352C41.5321 25.1218 41.8757 24.8849 42.1206 24.56C42.3655 24.2351 42.4986 23.8396 42.5 23.4327Z" fill="white"/>
<path d="M53.75 37.5002H52.3002C52.3435 37.3878 52.3753 37.2714 52.395 37.1526L53.4146 30.9028C53.456 30.6494 53.4409 30.39 53.3704 30.1431C53.2999 29.8963 53.1756 29.6681 53.0066 29.4748C52.805 29.2436 52.5555 29.059 52.2754 28.9338C51.9953 28.8087 51.6913 28.746 51.3846 28.7502H41.1154C40.8087 28.746 40.5047 28.8087 40.2246 28.9338C39.9445 29.059 39.695 29.2436 39.4934 29.4748C39.3244 29.668 39.2002 29.8962 39.1296 30.1431C39.0591 30.3899 39.044 30.6493 39.0854 30.9026L40.105 37.1526C40.1247 37.2714 40.1565 37.3878 40.1998 37.5002H16.25C15.9185 37.5002 15.6005 37.6319 15.3661 37.8663C15.1317 38.1007 15 38.4187 15 38.7502V40.6252C15 40.6552 15.0068 40.6834 15.0088 40.7129C14.9831 41.0174 15.0337 41.3235 15.1558 41.6036L15.8859 43.303C16.0323 43.6423 16.2753 43.9311 16.5847 44.1333C16.8941 44.3355 17.2561 44.4422 17.6257 44.4402C17.8658 44.4403 18.1038 44.3951 18.3272 44.3068L18.5827 44.2051C18.8816 44.6831 19.2048 45.1496 19.5522 45.6045L19.4249 45.7267C19.2442 45.8994 19.1005 46.1068 19.0022 46.3366C18.9039 46.5663 18.8532 46.8136 18.8531 47.0635C18.853 47.3134 18.9035 47.5607 19.0016 47.7905C19.0997 48.0204 19.2433 48.228 19.4238 48.4008L20.7797 49.7068C21.135 50.047 21.6079 50.2369 22.0998 50.2369C22.5917 50.237 23.0646 50.0471 23.42 49.707L23.6062 49.5282C24.0828 49.8685 24.5793 50.1894 25.0905 50.4873L25.0227 50.6459C24.9257 50.8734 24.8752 51.118 24.8742 51.3653C24.8732 51.6125 24.9216 51.8575 25.0166 52.0858C25.1144 52.317 25.2574 52.5263 25.4373 52.7014C25.6172 52.8765 25.8303 53.0138 26.0641 53.1052L27.8299 53.8109C28.0555 53.9003 28.296 53.9462 28.5386 53.9464C28.9091 53.9484 29.2719 53.8413 29.5818 53.6384C29.8917 53.4355 30.135 53.1458 30.2813 52.8054L30.3672 52.6045C30.9444 52.7422 31.5419 52.856 32.15 52.9437V53.1346C32.1539 53.6325 32.3551 54.1085 32.7096 54.4583C33.064 54.808 33.5427 55.0029 34.0406 55.0002H35.9594C36.4573 55.0029 36.936 54.808 37.2904 54.4583C37.6449 54.1085 37.8461 53.6325 37.85 53.1346V52.9437C38.457 52.8561 39.0532 52.7426 39.6327 52.6044L39.7193 52.8069C39.8657 53.1469 40.109 53.4363 40.4188 53.6389C40.7286 53.8416 41.0912 53.9485 41.4614 53.9464C41.7007 53.9466 41.938 53.9018 42.1609 53.8146L43.9452 53.1015C44.177 53.0098 44.3883 52.8727 44.5666 52.6983C44.7449 52.5239 44.8866 52.3157 44.9834 52.0858C45.0785 51.8572 45.1269 51.6118 45.1257 51.3642C45.1245 51.1165 45.0738 50.8716 44.9765 50.6439L44.9095 50.4874C45.4198 50.19 45.9167 49.869 46.3938 49.5282L46.5811 49.7081C46.9365 50.0477 47.4092 50.2371 47.9008 50.2369C48.3923 50.2367 48.8649 50.0469 49.22 49.707L50.5765 48.4005C50.7568 48.2278 50.9003 48.0203 50.9984 47.7906C51.0964 47.5609 51.1469 47.3138 51.1469 47.064C51.1468 46.8143 51.0963 46.5672 50.9982 46.3375C50.9001 46.1079 50.7566 45.9004 50.5762 45.7277L50.4479 45.6045C50.7946 45.1505 51.1189 44.6824 51.4174 44.2051L51.6688 44.3052C51.8933 44.3944 52.1327 44.4402 52.3743 44.4401C52.7446 44.442 53.1072 44.3348 53.4169 44.1319C53.7266 43.929 53.9696 43.6394 54.1157 43.2992L54.8485 41.5936C54.9689 41.3158 55.018 41.0124 54.9914 40.7108C54.9934 40.682 55 40.6545 55 40.6252V38.7502C55 38.4187 54.8683 38.1007 54.6339 37.8663C54.3995 37.6319 54.0815 37.5002 53.75 37.5002ZM40.4459 30.2843C40.5308 30.1919 40.6344 30.1188 40.7499 30.0698C40.8654 30.0208 40.99 29.9971 41.1154 30.0002H51.3846C51.51 29.9971 51.6346 30.0208 51.7501 30.0698C51.8656 30.1188 51.9693 30.1919 52.0541 30.2843C52.1048 30.3402 52.1425 30.4065 52.1644 30.4787C52.1864 30.5508 52.1921 30.6269 52.1811 30.7015L51.1615 36.9512C51.1126 37.1206 51.0065 37.2679 50.8613 37.368C50.7161 37.468 50.5407 37.5148 50.365 37.5002H42.135C41.9593 37.5148 41.7839 37.468 41.6387 37.368C41.4935 37.2679 41.3874 37.1206 41.3385 36.9512L40.3189 30.7013C40.3079 30.6268 40.3136 30.5507 40.3356 30.4786C40.3575 30.4065 40.3952 30.3401 40.4459 30.2843ZM52.9656 42.8096C52.9151 42.9239 52.8322 43.0209 52.7271 43.0886C52.622 43.1562 52.4994 43.1916 52.3744 43.1902C52.2911 43.1902 52.2087 43.1745 52.1312 43.1439L51.4094 42.8564C51.2647 42.7992 51.1043 42.7954 50.9571 42.8458C50.8099 42.8962 50.6855 42.9975 50.6063 43.1314C50.1653 43.8833 49.6669 44.6 49.1156 45.2752C49.0168 45.3926 48.9664 45.5431 48.9745 45.6963C48.9826 45.8495 49.0487 45.9939 49.1594 46.1002L49.7094 46.6283C49.7686 46.6844 49.8158 46.752 49.848 46.827C49.8802 46.9019 49.8969 46.9827 49.8969 47.0642C49.8969 47.1458 49.8802 47.2266 49.848 47.3015C49.8158 47.3765 49.7686 47.4441 49.7094 47.5002L48.3531 48.8064C48.2307 48.9223 48.0686 48.9869 47.9 48.9869C47.7314 48.9869 47.5693 48.9223 47.4469 48.8064L46.8969 48.2783C46.7756 48.1629 46.6144 48.0989 46.447 48.0998C46.3015 48.0996 46.1599 48.1469 46.0437 48.2346C45.3377 48.7674 44.5929 49.2468 43.8156 49.6689C43.6794 49.7387 43.5745 49.8572 43.5218 50.0008C43.4691 50.1444 43.4725 50.3027 43.5312 50.4439L43.8281 51.1377C43.8599 51.213 43.8761 51.294 43.8757 51.3757C43.8754 51.4574 43.8585 51.5382 43.8261 51.6133C43.7936 51.6883 43.7464 51.756 43.6871 51.8123C43.6279 51.8686 43.5578 51.9123 43.4813 51.9408L41.7062 52.6502C41.6282 52.6807 41.5451 52.6964 41.4613 52.6964C41.3361 52.698 41.2132 52.6628 41.1079 52.5951C41.0025 52.5275 40.9194 52.4303 40.8687 52.3158L40.575 51.6283C40.5234 51.5138 40.4393 51.4168 40.3332 51.3496C40.2271 51.2823 40.1035 51.2476 39.9779 51.2499C39.9189 51.2499 39.8602 51.2573 39.8031 51.2721C38.9392 51.5016 38.0598 51.6687 37.1719 51.7721C37.0183 51.7856 36.8751 51.8552 36.7696 51.9676C36.6641 52.08 36.6038 52.2273 36.6 52.3814V53.1346C36.5961 53.301 36.5265 53.4591 36.4065 53.5744C36.2865 53.6897 36.1258 53.7529 35.9594 53.7502H34.0406C33.8742 53.7529 33.7135 53.6897 33.5935 53.5744C33.4735 53.4591 33.4039 53.301 33.4 53.1346V52.3814C33.3962 52.2273 33.3359 52.08 33.2304 51.9676C33.1249 51.8552 32.9817 51.7856 32.8281 51.7721C31.9402 51.6687 31.0608 51.5016 30.1969 51.2721C30.1398 51.2573 30.0811 51.2499 30.0221 51.2498C29.8965 51.2476 29.7729 51.2823 29.6668 51.3495C29.5607 51.4168 29.4766 51.5137 29.425 51.6283L29.1313 52.3158C29.0806 52.4303 28.9975 52.5275 28.8921 52.5951C28.7868 52.6628 28.6639 52.698 28.5387 52.6964C28.4549 52.6964 28.3718 52.6807 28.2938 52.6502L26.5188 51.9408C26.4422 51.9123 26.3721 51.8686 26.3129 51.8123C26.2536 51.756 26.2064 51.6883 26.1739 51.6133C26.1415 51.5382 26.1247 51.4574 26.1243 51.3757C26.1239 51.294 26.1401 51.213 26.1719 51.1377L26.4688 50.4439C26.5275 50.3027 26.5309 50.1444 26.4782 50.0008C26.4255 49.8572 26.3206 49.7387 26.1844 49.6689C25.4071 49.2468 24.6623 48.7674 23.9563 48.2346C23.8401 48.147 23.6985 48.0996 23.553 48.0998C23.3856 48.0989 23.2244 48.1629 23.1031 48.2783L22.5531 48.8064C22.4307 48.9223 22.2686 48.9869 22.1 48.9869C21.9314 48.9869 21.7693 48.9223 21.6469 48.8064L20.2906 47.5002C20.2314 47.4441 20.1842 47.3765 20.152 47.3015C20.1198 47.2266 20.1031 47.1458 20.1031 47.0643C20.1031 46.9827 20.1198 46.9019 20.152 46.827C20.1842 46.752 20.2314 46.6844 20.2906 46.6283L20.8406 46.1002C20.9513 45.9939 21.0174 45.8495 21.0255 45.6963C21.0336 45.5431 20.9832 45.3926 20.8844 45.2752C20.3331 44.6 19.8347 43.8833 19.3938 43.1314C19.3145 42.9975 19.1901 42.8962 19.0429 42.8458C18.8957 42.7954 18.7353 42.7992 18.5906 42.8564L17.8688 43.1439C17.7913 43.1745 17.7089 43.1902 17.6256 43.1902C17.5006 43.1916 17.378 43.1562 17.2729 43.0886C17.1678 43.0209 17.0849 42.9239 17.0344 42.8096L16.633 41.8752H21.4152C22.8918 44.1309 24.907 45.9834 27.2786 47.2655C29.6503 48.5476 32.304 49.2189 35 49.2189C37.6961 49.2189 40.3497 48.5476 42.7214 47.2655C45.0931 45.9834 47.1082 44.1309 48.5848 41.8752H53.367L52.9656 42.8096ZM22.9383 41.8752H47.0617C45.669 43.7647 43.8519 45.3006 41.7568 46.359C39.6617 47.4175 37.3473 47.9689 35 47.9689C32.6527 47.9689 30.3383 47.4175 28.2432 46.359C26.1481 45.3006 24.331 43.7647 22.9383 41.8752ZM53.75 40.6252H16.25V38.7502H53.75V40.6252Z" fill="white"/>
<path d="M46.25 35.625C46.6208 35.625 46.9834 35.515 47.2917 35.309C47.6 35.103 47.8404 34.8101 47.9823 34.4675C48.1242 34.1249 48.1613 33.7479 48.089 33.3842C48.0166 33.0205 47.838 32.6864 47.5758 32.4242C47.3136 32.162 46.9795 31.9834 46.6158 31.911C46.2521 31.8387 45.8751 31.8758 45.5325 32.0177C45.1899 32.1596 44.897 32.4 44.691 32.7083C44.485 33.0166 44.375 33.3792 44.375 33.75C44.3756 34.2471 44.5733 34.7237 44.9248 35.0752C45.2763 35.4267 45.7529 35.6244 46.25 35.625ZM46.25 33.125C46.3736 33.125 46.4944 33.1617 46.5972 33.2303C46.7 33.299 46.7801 33.3966 46.8274 33.5108C46.8747 33.625 46.8871 33.7507 46.863 33.8719C46.8389 33.9932 46.7794 34.1045 46.6919 34.1919C46.6045 34.2794 46.4932 34.3389 46.3719 34.363C46.2507 34.3871 46.125 34.3747 46.0108 34.3274C45.8966 34.2801 45.799 34.2 45.7303 34.0972C45.6617 33.9945 45.625 33.8736 45.625 33.75C45.625 33.5842 45.6908 33.4253 45.8081 33.3081C45.9253 33.1908 46.0842 33.125 46.25 33.125Z" fill="white"/>
<path d="M20.0296 30C20.1954 30 20.3544 29.9341 20.4716 29.8169C20.5888 29.6997 20.6546 29.5408 20.6546 29.375V28.7471C20.9547 28.7036 21.2432 28.6011 21.5035 28.4455C21.7638 28.2899 21.9907 28.0843 22.171 27.8406C22.3848 27.5242 22.4996 27.1514 22.5008 26.7696C22.5021 26.3878 22.3897 26.0143 22.1781 25.6966C21.6938 24.9434 20.8548 24.7182 20.1145 24.5195C19.3741 24.3208 18.913 24.1785 18.7754 23.7743C18.6481 23.3963 19.0521 23.1201 19.2829 23.0272C19.5518 22.9301 19.8391 22.8949 20.1235 22.9242C20.4079 22.9535 20.6821 23.0465 20.9256 23.1963C20.9957 23.2394 21.0736 23.2683 21.1549 23.2813C21.2362 23.2942 21.3192 23.291 21.3993 23.2718C21.4793 23.2526 21.5547 23.2178 21.6213 23.1693C21.6878 23.1209 21.7441 23.0597 21.787 22.9895C21.8298 22.9192 21.8583 22.8411 21.8709 22.7598C21.8835 22.6785 21.8799 22.5954 21.8604 22.5155C21.8408 22.4355 21.8056 22.3602 21.7568 22.2939C21.7081 22.2276 21.6467 22.1716 21.5762 22.1291C21.3656 22.0011 21.1408 21.8981 20.9064 21.8222V21.25C20.9064 21.0842 20.8405 20.9253 20.7233 20.8081C20.6061 20.6908 20.4471 20.625 20.2814 20.625C20.1156 20.625 19.9566 20.6908 19.8394 20.8081C19.7222 20.9253 19.6564 21.0842 19.6564 21.25V21.6777C19.3685 21.6985 19.0854 21.7625 18.8165 21.8675C17.7948 22.2791 17.2794 23.2487 17.5916 24.1753C17.952 25.2336 18.9716 25.5071 19.7904 25.7269C20.3629 25.8804 20.9034 26.0255 21.1267 26.3728C21.2039 26.483 21.2467 26.6136 21.2498 26.7481C21.2528 26.8825 21.216 27.0149 21.1438 27.1285C20.8619 27.5351 20.1477 27.6169 19.6045 27.5211C19.3819 27.4775 19.1723 27.3833 18.992 27.2456C18.9265 27.1962 18.8518 27.1601 18.7722 27.1395C18.6927 27.1189 18.6099 27.1142 18.5286 27.1257C18.4472 27.1371 18.369 27.1645 18.2982 27.2062C18.2274 27.248 18.1656 27.3032 18.1162 27.3689C18.0669 27.4345 18.0309 27.5092 18.0104 27.5888C17.99 27.6683 17.9854 27.7511 17.9969 27.8325C18.0085 27.9138 18.036 27.992 18.0778 28.0627C18.1196 28.1334 18.175 28.1952 18.2407 28.2445C18.5777 28.5006 18.9699 28.6743 19.386 28.7517C19.3919 28.7527 19.3986 28.7531 19.4046 28.7541V29.375C19.4046 29.5408 19.4705 29.6997 19.5877 29.8169C19.7049 29.9341 19.8639 30 20.0296 30Z" fill="white"/>
<path d="M38.5938 28.6095V27.842C38.8155 27.6124 39.0151 27.3623 39.1896 27.0949L35.9851 28.0132C35.8414 28.0533 35.6934 28.076 35.5443 28.0808C35.0112 28.1637 34.4664 28.1298 33.9477 27.9812C33.429 27.8327 32.9488 27.5732 32.5403 27.2207C32.1319 26.8682 31.8049 26.4312 31.5821 25.9398C31.3593 25.4484 31.246 24.9145 31.25 24.3749V22.4999C31.25 21.5054 31.6451 20.5516 32.3483 19.8483C33.0516 19.145 34.0054 18.7499 35 18.7499C35.9946 18.7499 36.9484 19.145 37.6517 19.8483C38.3549 20.5516 38.75 21.5054 38.75 22.4999V23.32L40 22.9618V22.4999C40 21.5424 39.7231 20.6053 39.2027 19.8014C38.6345 18.9376 37.8159 18.2679 36.8565 17.8821C35.8972 17.4963 34.8429 17.4127 33.8347 17.6427C32.7313 17.9412 31.7572 18.5956 31.0638 19.5044C30.3704 20.4133 29.9965 21.5256 30 22.6687V24.3749C30 25.6698 30.5044 26.9137 31.4062 27.8429V29.389C31.3533 29.3838 31.3011 29.3749 31.2473 29.3749H30.528C27.0892 29.3749 24.6875 31.3462 24.6875 34.1686V36.2499H25.9375V34.1686C25.9375 31.7339 28.317 30.6249 30.528 30.6249H31.2473C31.3283 30.6233 31.4072 30.6505 31.47 30.7017L34.0362 32.9758L33.0279 36.2499H34.3358L35 34.0928L35.6642 36.2499H36.9721L35.9638 32.9757L37.8799 31.2778L37.8516 31.1038C37.7825 30.6716 37.8084 30.2295 37.9275 29.8084C38.0465 29.3872 38.2559 28.997 38.541 28.665C38.5576 28.6454 38.5767 28.6286 38.5938 28.6095ZM37.3438 30.0827L35 32.1597L32.6562 30.0826V28.7887C33.3775 29.1739 34.1826 29.3752 35.0002 29.375C35.8178 29.3747 36.6228 29.1727 37.3438 28.7871V30.0827Z" fill="white"/>
<path d="M28.165 35.1284V36.2502H29.415V35.1284C29.415 34.9627 29.3492 34.8037 29.232 34.6865C29.1148 34.5693 28.9558 34.5034 28.79 34.5034C28.6243 34.5034 28.4653 34.5693 28.3481 34.6865C28.2309 34.8037 28.165 34.9627 28.165 35.1284Z" fill="white"/>
</g>
<defs>
<clipPath id="clip0_1_13534">
<rect width="40" height="40" fill="white" transform="translate(15 15)"/>
</clipPath>
</defs>
</svg>
