<svg width="70" height="70" viewBox="0 0 70 70" fill="none" xmlns="http://www.w3.org/2000/svg">
<rect width="70" height="70" rx="10" fill="#2F2BEB"/>
<g clip-path="url(#clip0_1_13511)">
<path d="M51.6667 15.7031H49.6667C49.4899 15.7031 49.3203 15.7732 49.1953 15.898C49.0702 16.0228 49 16.1921 49 16.3685V19.0302H21V16.3685C21 16.1921 20.9298 16.0228 20.8047 15.898C20.6797 15.7732 20.5101 15.7031 20.3333 15.7031H18.3333C17.4496 15.7041 16.6023 16.055 15.9774 16.6787C15.3525 17.3024 15.001 18.1481 15 19.0302V41.6541C15.001 42.5362 15.3525 43.3818 15.9774 44.0056C16.6023 44.6293 17.4496 44.9801 18.3333 44.9811H19.6667V43.6503H18.3333C17.8029 43.6503 17.2942 43.44 16.9191 43.0656C16.544 42.6913 16.3333 42.1835 16.3333 41.6541C16.3333 41.1247 16.544 40.6169 16.9191 40.2425C17.2942 39.8682 17.8029 39.6579 18.3333 39.6579H20.3333C20.5101 39.6579 20.6797 39.5878 20.8047 39.463C20.9298 39.3382 21 39.1689 21 38.9925V20.361H49V38.9925C49 39.1689 49.0702 39.3382 49.1953 39.463C49.3203 39.5878 49.4899 39.6579 49.6667 39.6579H51.6667C52.1971 39.6579 52.7058 39.8682 53.0809 40.2425C53.4559 40.6169 53.6667 41.1247 53.6667 41.6541C53.6667 42.1835 53.4559 42.6913 53.0809 43.0656C52.7058 43.44 52.1971 43.6503 51.6667 43.6503H49V44.9811H51.6667C52.5504 44.9801 53.3977 44.6293 54.0226 44.0056C54.6475 43.3818 54.999 42.5362 55 41.6541V19.0302C54.999 18.1481 54.6475 17.3024 54.0226 16.6787C53.3977 16.055 52.5504 15.7041 51.6667 15.7031ZM19.6667 38.327H18.3333C17.6117 38.3263 16.9095 38.5604 16.3333 38.994V19.0302C16.3339 18.5009 16.5448 17.9935 16.9198 17.6193C17.2947 17.2451 17.8031 17.0345 18.3333 17.0339H19.6667V38.327ZM51.6667 38.327H50.3333V17.0339H51.6667C52.1969 17.0345 52.7053 17.2451 53.0802 17.6193C53.4552 17.9935 53.6661 18.5009 53.6667 19.0302V38.994C53.0905 38.5604 52.3883 38.3263 51.6667 38.327Z" fill="white"/>
<path d="M28.3333 33.6692C28.3319 35.1024 28.757 36.5038 29.5546 37.6955L30.9999 39.8594V44.9812C31 45.0845 31.0243 45.1863 31.0708 45.2785L31.0703 45.2788L32.4036 47.9404C32.459 48.0509 32.5441 48.1439 32.6494 48.2089C32.7547 48.2738 32.8761 48.3083 32.9999 48.3082H36.9999C37.1237 48.3083 37.2451 48.2738 37.3504 48.2089C37.4557 48.1439 37.5408 48.0509 37.5962 47.9404L38.9295 45.2788L38.929 45.2785C38.9756 45.1863 38.9999 45.0845 38.9999 44.9812V39.8594L40.4452 37.6955C41.2429 36.5038 41.668 35.1024 41.6666 33.6692C41.6666 31.9045 40.9642 30.212 39.714 28.9641C38.4637 27.7162 36.768 27.0151 34.9999 27.0151C33.2318 27.0151 31.5361 27.7162 30.2859 28.9641C29.0356 30.212 28.3333 31.9045 28.3333 33.6692ZM33.3292 34.5811L34.5999 35.5324C34.7153 35.6188 34.8557 35.6655 34.9999 35.6655C35.1442 35.6655 35.2845 35.6188 35.3999 35.5324L36.6706 34.5811L35.7867 38.9925H34.2131L33.3292 34.5811ZM37.6666 40.3233V44.3158H32.3333V40.3233H37.6666ZM36.5879 46.9774H33.4119L32.7453 45.6466H37.2546L36.5879 46.9774ZM34.9999 28.346C36.4139 28.3475 37.7695 28.9089 38.7694 29.9069C39.7692 30.9048 40.3317 32.2579 40.3333 33.6692C40.3344 34.8397 39.9872 35.9841 39.3359 36.9573L37.9765 38.9925H37.1465L38.3203 33.1343C38.3468 33.0022 38.3325 32.8651 38.2792 32.7413C38.2259 32.6175 38.1363 32.5127 38.022 32.4409C37.9078 32.369 37.7745 32.3335 37.6396 32.339C37.5047 32.3444 37.3746 32.3906 37.2666 32.4715L34.9999 34.1683L32.7332 32.4715C32.6252 32.3906 32.4952 32.3444 32.3603 32.339C32.2254 32.3335 32.092 32.369 31.9778 32.4409C31.8636 32.5127 31.7739 32.6175 31.7206 32.7413C31.6674 32.8651 31.653 33.0022 31.6795 33.1343L32.8534 38.9925H32.0234L30.664 36.9573C30.0126 35.9841 29.6655 34.8397 29.6666 33.6692C29.6682 32.2579 30.2306 30.9048 31.2304 29.9069C32.2303 28.9089 33.5859 28.3475 34.9999 28.346Z" fill="white"/>
<path d="M15 52.2199C15.0006 52.7705 15.2201 53.2984 15.6102 53.6878C16.0003 54.0772 16.5292 54.2962 17.0809 54.2968H27C27.707 54.296 28.3848 54.0154 28.8847 53.5164C29.3847 53.0174 29.6659 52.3409 29.6667 51.6352V42.8707C29.6667 42.3669 29.517 41.8743 29.2365 41.4554C28.9561 41.0365 28.5575 40.71 28.0911 40.5172C27.6247 40.3243 27.1116 40.2739 26.6165 40.3722C26.1214 40.4705 25.6666 40.7131 25.3097 41.0694L15.6095 50.7513C15.4156 50.9437 15.262 51.1725 15.1574 51.4246C15.0528 51.6767 14.9993 51.947 15 52.2199ZM26.2525 42.0104C26.423 41.8403 26.6402 41.7244 26.8766 41.6774C27.1131 41.6305 27.3582 41.6546 27.5809 41.7467C27.8036 41.8388 27.994 41.9947 28.1279 42.1948C28.2619 42.3949 28.3333 42.6301 28.3333 42.8707V43.6503H27V44.9811H28.3333V46.3119H27V47.6427H28.3333V48.9736H27V50.3044H28.3333V51.6352C28.3329 51.988 28.1923 52.3263 27.9424 52.5758C27.6924 52.8253 27.3535 52.9656 27 52.966H25.6667V51.6352H24.3333V52.966H23V51.6352H21.6667V52.966H20.3333V51.6352H19V52.966H17.0809C16.933 52.966 16.7885 52.9223 16.6656 52.8403C16.5426 52.7583 16.4468 52.6418 16.3902 52.5054C16.3337 52.3691 16.3189 52.219 16.3477 52.0743C16.3766 51.9296 16.4478 51.7966 16.5523 51.6923L26.2525 42.0104Z" fill="white"/>
<path d="M21.6666 50.3044H25C25.1768 50.3044 25.3464 50.2343 25.4714 50.1095C25.5964 49.9847 25.6666 49.8154 25.6666 49.639V46.3119C25.6666 46.1803 25.6275 46.0516 25.5543 45.9422C25.481 45.8328 25.3769 45.7475 25.2551 45.6971C25.1333 45.6468 24.9992 45.6336 24.8699 45.6593C24.7406 45.685 24.6218 45.7483 24.5285 45.8414L21.1952 49.1684C21.102 49.2615 21.0385 49.3801 21.0128 49.5092C20.9871 49.6382 21.0003 49.772 21.0508 49.8936C21.1012 50.0152 21.1867 50.1191 21.2963 50.1922C21.4059 50.2653 21.5348 50.3043 21.6666 50.3044ZM24.3333 47.9183V48.9735H23.2761L24.3333 47.9183Z" fill="white"/>
<path d="M42.3333 35.6654V50.3044C42.3333 50.425 42.3661 50.5433 42.4282 50.6467L44.4282 53.9738C44.4875 54.0723 44.5712 54.1539 44.6714 54.2105C44.7716 54.2671 44.8848 54.2969 44.9999 54.2969C45.115 54.2969 45.2282 54.2671 45.3284 54.2105C45.4286 54.1539 45.5124 54.0723 45.5716 53.9738L47.5716 50.6467C47.6337 50.5433 47.6666 50.425 47.6666 50.3044V35.6654C47.6666 35.4889 47.5963 35.3197 47.4713 35.1949C47.3463 35.0701 47.1767 35 46.9999 35H42.9999C42.8231 35 42.6535 35.0701 42.5285 35.1949C42.4035 35.3197 42.3333 35.4889 42.3333 35.6654ZM45.6666 49.639V40.9887H46.3333V49.639H45.6666ZM43.6666 49.639V40.9887H44.3333V49.639H43.6666ZM43.6666 39.6579V38.9925H46.3333V39.6579H43.6666ZM44.9999 52.3381L44.1774 50.9698H45.8225L44.9999 52.3381ZM46.3333 36.3308V37.6616H43.6666V36.3308H46.3333Z" fill="white"/>
<path d="M28.4003 25.4755L27.4575 26.4165L28.8717 27.8281L29.8146 26.887L28.4003 25.4755Z" fill="white"/>
<path d="M35.6666 23.0225H34.3333V25.0187H35.6666V23.0225Z" fill="white"/>
<path d="M41.5997 25.4756L40.1855 26.8872L41.1284 27.8282L42.5426 26.4166L41.5997 25.4756Z" fill="white"/>
<path d="M45 32.3384H43V33.6692H45V32.3384Z" fill="white"/>
<path d="M27 32.3384H25V33.6692H27V32.3384Z" fill="white"/>
</g>
<defs>
<clipPath id="clip0_1_13511">
<rect width="40" height="40" fill="white" transform="translate(15 15)"/>
</clipPath>
</defs>
</svg>
