<svg width="70" height="70" viewBox="0 0 70 70" fill="none" xmlns="http://www.w3.org/2000/svg">
<rect width="70" height="70" rx="10" fill="#2F2BEB"/>
<path d="M41.9764 36.7012C42.2368 36.6495 42.4245 36.4195 42.4245 36.1521V33.8477C42.4245 33.5804 42.2368 33.3503 41.9764 33.2986L40.8869 33.0822L40.5083 32.1627L41.1271 31.233C41.2749 31.011 41.2461 30.7146 41.0585 30.5255L39.4411 28.8961C39.2534 28.7071 38.9592 28.678 38.7389 28.827L37.8161 29.4504L36.9034 29.0691L36.6886 27.9715C36.6373 27.7092 36.4089 27.5201 36.1435 27.5201H33.8562C33.5908 27.5201 33.3625 27.7092 33.3112 27.9715L33.0963 29.0691L32.1837 29.4504L31.2609 28.827C31.0404 28.6781 30.7463 28.7071 30.5587 28.8961L28.9413 30.5255C28.7537 30.7146 28.7249 31.011 28.8728 31.2331L29.4916 32.1627L29.1129 33.0822L28.0235 33.2986C27.7631 33.3503 27.5754 33.5804 27.5754 33.8477V36.1521C27.5754 36.4195 27.7631 36.6495 28.0235 36.7012L29.113 36.9177L29.4916 37.8371L28.8728 38.7668C28.7249 38.9889 28.7537 39.2852 28.9413 39.4743L30.5587 41.1037C30.7463 41.2927 31.0404 41.3217 31.261 41.1728L32.1838 40.5494L33.0964 40.9308L33.3112 42.0284C33.3626 42.2908 33.5909 42.4799 33.8563 42.4799H36.1436C36.409 42.4799 36.6373 42.2908 36.6887 42.0284L36.9035 40.9308L37.8162 40.5494L38.7389 41.1728C38.9594 41.3218 39.2535 41.2927 39.4412 41.1037L41.0586 39.4743C41.2462 39.2853 41.275 38.9889 41.1272 38.7668L40.5084 37.8372L40.8869 36.9177L41.9765 36.7012H41.9764ZM40.3802 35.8774C40.1979 35.9136 40.0457 36.0391 39.9745 36.2121L39.3679 37.6853C39.2967 37.8584 39.3161 38.0558 39.4196 38.2115L39.9499 39.0081L38.9784 39.9869L38.1877 39.4526C38.0333 39.3483 37.8373 39.3286 37.6654 39.4005L36.2031 40.0116C36.0315 40.0833 35.9069 40.2367 35.8709 40.4203L35.6869 41.3605H34.3131L34.1291 40.4203C34.0931 40.2367 33.9685 40.0833 33.7969 40.0116L32.3346 39.4005C32.1628 39.3288 31.9668 39.3483 31.8123 39.4526L31.0216 39.9869L30.05 39.0081L30.5804 38.2115C30.6839 38.0559 30.7034 37.8584 30.6321 37.6853L30.0255 36.2121C29.9543 36.0392 29.8021 35.9136 29.6198 35.8774L28.6867 35.692V34.3079L29.6198 34.1226C29.8021 34.0863 29.9543 33.9608 30.0255 33.7879L30.6321 32.3147C30.7034 32.1415 30.6839 31.9441 30.5804 31.7885L30.05 30.9919L31.0216 30.0131L31.8123 30.5473C31.9667 30.6517 32.1627 30.6712 32.3346 30.5994L33.7969 29.9883C33.9685 29.9166 34.0931 29.7632 34.1291 29.5796L34.3131 28.6395H35.6869L35.8709 29.5796C35.9069 29.7632 36.0315 29.9166 36.2031 29.9883L37.6654 30.5994C37.8373 30.6712 38.0333 30.6517 38.1877 30.5473L38.9784 30.0131L39.9499 30.9919L39.4197 31.7885C39.3161 31.9441 39.2967 32.1415 39.368 32.3147L39.9746 33.7879C40.0457 33.9607 40.198 34.0863 40.3803 34.1226L41.3134 34.3079V35.692L40.3802 35.8774ZM35 30.8914C32.7513 30.8914 30.9219 32.7345 30.9219 34.9999C30.9219 37.2653 32.7513 39.1084 35 39.1084C37.2486 39.1084 39.078 37.2653 39.078 34.9999C39.078 32.7345 37.2486 30.8914 35 30.8914ZM35 37.9891C33.3639 37.9891 32.033 36.6481 32.033 35C32.033 33.3519 33.3639 32.0109 35 32.0109C36.636 32.0109 37.9669 33.3519 37.9669 35C37.9669 36.6481 36.6359 37.9891 35 37.9891ZM49.5616 33.2052H43.5403C43.2334 33.2052 42.9847 33.4558 42.9847 33.7649C42.9847 34.074 43.2334 34.3246 43.5403 34.3246H49.7917C49.939 34.3246 50.0803 34.2656 50.1845 34.1607L52.0691 32.2621C52.3514 32.4185 52.6754 32.5078 53.0198 32.5078C54.1116 32.5078 54.9999 31.6128 54.9999 30.5128C54.9999 29.4129 54.1116 28.5179 53.0198 28.5179C51.9279 28.5179 51.0396 29.4129 51.0396 30.5128C51.0396 30.8598 51.1281 31.1861 51.2833 31.4706L49.5615 33.2053L49.5616 33.2052ZM53.0198 29.6371C53.499 29.6371 53.8888 30.0299 53.8888 30.5127C53.8888 30.9955 53.499 31.3882 53.0198 31.3882C52.5406 31.3882 52.1507 30.9955 52.1507 30.5127C52.1507 30.0299 52.5406 29.6371 53.0198 29.6371ZM48.6801 41.6039V38.7052C48.6801 38.3961 48.4314 38.1455 48.1245 38.1455H42.1488C41.842 38.1455 41.5933 38.3961 41.5933 38.7052C41.5933 39.0143 41.842 39.2649 42.1488 39.2649H47.569V41.6039C46.7468 41.8465 46.1444 42.6127 46.1444 43.5183C46.1444 44.6183 47.0326 45.5133 48.1245 45.5133C49.2164 45.5133 50.1047 44.6183 50.1047 43.5183C50.1047 42.6127 49.5022 41.8465 48.6801 41.6039ZM48.1245 44.3939C47.6453 44.3939 47.2555 44.0011 47.2555 43.5183C47.2555 43.0356 47.6453 42.6428 48.1245 42.6428C48.6037 42.6428 48.9936 43.0356 48.9936 43.5183C48.9936 44.0011 48.6037 44.3939 48.1245 44.3939ZM53.0198 37.4923C52.6754 37.4923 52.3514 37.5814 52.0691 37.7379L50.1845 35.8393C50.0803 35.7344 49.9391 35.6754 49.7917 35.6754H43.5403C43.2334 35.6754 42.9847 35.926 42.9847 36.2351C42.9847 36.5442 43.2334 36.7948 43.5403 36.7948H49.5616L51.2834 38.5294C51.1282 38.8139 51.0397 39.1403 51.0397 39.4872C51.0397 40.5872 51.9279 41.4822 53.0198 41.4822C54.1117 41.4822 55 40.5872 55 39.4872C55 38.3873 54.1117 37.4923 53.0198 37.4923L53.0198 37.4923ZM53.0198 40.3627C52.5406 40.3627 52.1507 39.9699 52.1507 39.4872C52.1507 39.0044 52.5406 38.6116 53.0198 38.6116C53.499 38.6116 53.8888 39.0044 53.8888 39.4872C53.8888 39.9699 53.499 40.3627 53.0198 40.3627ZM47.569 28.3959V30.735H42.1488C41.842 30.735 41.5933 30.9855 41.5933 31.2946C41.5933 31.6038 41.842 31.8543 42.1488 31.8543H48.1245C48.4314 31.8543 48.6801 31.6038 48.6801 31.2946V28.3959C49.5023 28.1533 50.1047 27.3872 50.1047 26.4815C50.1047 25.3815 49.2164 24.4866 48.1245 24.4866C47.0327 24.4866 46.1444 25.3815 46.1444 26.4815C46.1444 27.3872 46.7468 28.1533 47.569 28.3959ZM48.1245 25.606C48.6037 25.606 48.9936 25.9987 48.9936 26.4815C48.9936 26.9643 48.6037 27.357 48.1245 27.357C47.6453 27.357 47.2555 26.9643 47.2555 26.4815C47.2555 25.9987 47.6453 25.606 48.1245 25.606ZM20.4384 36.7948H26.4597C26.7666 36.7948 27.0153 36.5442 27.0153 36.2351C27.0153 35.926 26.7666 35.6754 26.4597 35.6754H20.2083C20.061 35.6754 19.9197 35.7344 19.8155 35.8393L17.9309 37.7379C17.6486 37.5815 17.3246 37.4923 16.9802 37.4923C15.8884 37.4923 15.0001 38.3873 15.0001 39.4872C15.0001 40.5872 15.8884 41.4822 16.9802 41.4822C18.0721 41.4822 18.9604 40.5872 18.9604 39.4872C18.9604 39.1403 18.8719 38.8139 18.7167 38.5294L20.4385 36.7949L20.4384 36.7948ZM16.9802 40.3628C16.501 40.3628 16.1112 39.97 16.1112 39.4872C16.1112 39.0045 16.501 38.6117 16.9802 38.6117C17.4594 38.6117 17.8493 39.0045 17.8493 39.4872C17.8493 39.97 17.4594 40.3628 16.9802 40.3628ZM22.431 41.604V39.265H27.8512C28.1581 39.265 28.4068 39.0144 28.4068 38.7053C28.4068 38.3962 28.1581 38.1456 27.8512 38.1456H21.8755C21.5686 38.1456 21.3199 38.3962 21.3199 38.7053V41.604C20.4978 41.8466 19.8953 42.6128 19.8953 43.5184C19.8953 44.6184 20.7836 45.5133 21.8755 45.5133C22.9673 45.5133 23.8556 44.6184 23.8556 43.5184C23.8556 42.6128 23.2532 41.8466 22.431 41.604ZM21.8755 44.3939C21.3963 44.3939 21.0064 44.0012 21.0064 43.5184C21.0064 43.0356 21.3963 42.6429 21.8755 42.6429C22.3547 42.6429 22.7445 43.0356 22.7445 43.5184C22.7445 44.0012 22.3547 44.3939 21.8755 44.3939ZM21.3199 28.396V31.2947C21.3199 31.6038 21.5686 31.8544 21.8755 31.8544H27.8512C28.1581 31.8544 28.4068 31.6038 28.4068 31.2947C28.4068 30.9856 28.1581 30.735 27.8512 30.735H22.431V28.396C23.2532 28.1534 23.8556 27.3872 23.8556 26.4816C23.8556 25.3816 22.9674 24.4867 21.8755 24.4867C20.7836 24.4867 19.8953 25.3816 19.8953 26.4816C19.8953 27.3872 20.4977 28.1534 21.3199 28.396ZM21.8755 25.6061C22.3547 25.6061 22.7445 25.9988 22.7445 26.4816C22.7445 26.9644 22.3547 27.3571 21.8755 27.3571C21.3963 27.3571 21.0064 26.9644 21.0064 26.4816C21.0064 25.9988 21.3963 25.6061 21.8755 25.6061ZM16.9802 32.5077C17.3246 32.5077 17.6486 32.4185 17.9309 32.2621L19.8155 34.1607C19.9197 34.2656 20.0609 34.3246 20.2083 34.3246H26.4597C26.7666 34.3246 27.0153 34.074 27.0153 33.7649C27.0153 33.4558 26.7666 33.2052 26.4597 33.2052H20.4384L18.7166 31.4706C18.8718 31.1861 18.9603 30.8596 18.9603 30.5128C18.9603 29.4128 18.0721 28.5178 16.9802 28.5178C15.8883 28.5178 15 29.4128 15 30.5128C15 31.6127 15.8883 32.5077 16.9802 32.5077H16.9802ZM16.9802 29.6372C17.4594 29.6372 17.8493 30.03 17.8493 30.5128C17.8493 30.9955 17.4594 31.3883 16.9802 31.3883C16.501 31.3883 16.1112 30.9955 16.1112 30.5128C16.1112 30.03 16.501 29.6372 16.9802 29.6372ZM25.8595 27.3274H29.8283C30.1351 27.3274 30.3839 27.0768 30.3839 26.7677C30.3839 24.2029 32.455 22.1164 35.0007 22.1164C37.5464 22.1164 39.6175 24.203 39.6175 26.7677C39.6175 27.0768 39.8662 27.3274 40.173 27.3274H44.1406C44.4474 27.3274 44.6961 27.0768 44.6961 26.7677V25.2352C44.6961 24.9678 44.5084 24.7378 44.248 24.6861L42.7018 24.379L42.1226 22.9723L43.0009 21.6528C43.1488 21.4308 43.1199 21.1344 42.9323 20.9453L40.78 18.777C40.5924 18.5879 40.2982 18.5588 40.0777 18.7079L38.768 19.5928L37.3718 19.0092L37.0669 17.4514C37.0156 17.1891 36.7873 17 36.5219 17H33.4781C33.2127 17 32.9843 17.1891 32.933 17.4514L32.6281 19.0092L31.2319 19.5928L29.9222 18.7079C29.7016 18.5589 29.4076 18.5879 29.2199 18.777L27.0677 20.9453C26.8801 21.1344 26.8513 21.4307 26.9991 21.6528L27.8774 22.9723L27.2982 24.379L25.7519 24.6861C25.4915 24.7378 25.3038 24.9678 25.3038 25.2352V26.7677C25.3038 27.0768 25.5525 27.3274 25.8593 27.3274H25.8595ZM26.4151 25.6953L27.805 25.4192C27.9873 25.383 28.1395 25.2574 28.2107 25.0845L29.0178 23.124C29.089 22.9509 29.0697 22.7534 28.9661 22.5978L28.1763 21.4114L29.6827 19.8938L30.8603 20.6894C31.0147 20.7939 31.2108 20.8134 31.3826 20.7416L33.3285 19.9284C33.5001 19.8567 33.6248 19.7033 33.6608 19.5197L33.9348 18.1193H36.0652L36.3392 19.5197C36.3752 19.7033 36.4998 19.8567 36.6715 19.9284L38.6174 20.7416C38.7892 20.8134 38.9853 20.7938 39.1397 20.6894L40.3174 19.8938L41.8238 21.4114L41.034 22.5978C40.9304 22.7534 40.911 22.951 40.9823 23.124L41.7894 25.0845C41.8606 25.2574 42.0128 25.3829 42.1951 25.4192L43.585 25.6953V26.208H40.7019C40.4216 23.2876 37.9717 20.997 35.0007 20.997C32.0296 20.997 29.5797 23.2876 29.2995 26.208H26.4151V25.6953ZM44.1406 42.6726H40.173C39.8662 42.6726 39.6175 42.9232 39.6175 43.2323C39.6175 45.797 37.5464 47.8836 35.0007 47.8836C32.455 47.8836 30.3839 45.797 30.3839 43.2323C30.3839 42.9232 30.1351 42.6726 29.8283 42.6726H25.8595C25.5527 42.6726 25.3039 42.9232 25.3039 43.2323V44.7648C25.3039 45.0322 25.4916 45.2622 25.752 45.3139L27.2983 45.621L27.8775 47.0277L26.9993 48.3472C26.8514 48.5693 26.8802 48.8657 27.0678 49.0547L29.2201 51.223C29.4077 51.412 29.7018 51.441 29.9223 51.292L31.232 50.4072L32.6283 50.9908L32.9331 52.5486C32.9845 52.8109 33.2128 53 33.4782 53H36.522C36.7874 53 37.0158 52.8109 37.0671 52.5486L37.3719 50.9908L38.7682 50.4072L40.078 51.292C40.2984 51.441 40.5926 51.412 40.7802 51.223L42.9325 49.0547C43.1201 48.8657 43.1489 48.5693 43.0011 48.3472L42.1227 47.0277L42.7019 45.621L44.2482 45.3139C44.5086 45.2622 44.6963 45.0322 44.6963 44.7648V43.2323C44.6963 42.9232 44.4476 42.6726 44.1407 42.6726H44.1406ZM43.585 44.3047L42.1951 44.5808C42.0128 44.617 41.8606 44.7426 41.7894 44.9155L40.9823 46.876C40.9111 47.0491 40.9304 47.2466 41.034 47.4022L41.8238 48.5886L40.3174 50.1061L39.1397 49.3105C38.9853 49.2061 38.7892 49.1866 38.6174 49.2583L36.6715 50.0715C36.4999 50.1432 36.3752 50.2966 36.3392 50.4802L36.0652 51.8806H33.9348L33.6608 50.4802C33.6248 50.2967 33.5002 50.1432 33.3285 50.0715L31.3826 49.2583C31.2108 49.1866 31.0148 49.2061 30.8603 49.3105L29.6826 50.1061L28.1762 48.5886L28.966 47.4021C29.0696 47.2465 29.089 47.049 29.0177 46.8759L28.2106 44.9154C28.1394 44.7426 27.9872 44.617 27.8049 44.5807L26.415 44.3046V43.792H29.2994C29.5797 46.7123 32.0296 49.0029 35.0006 49.0029C37.9716 49.0029 40.4215 46.7123 40.7018 43.792H43.5849V44.3046L43.585 44.3047Z" fill="white"/>
</svg>
