<svg width="70" height="70" viewBox="0 0 70 70" fill="none" xmlns="http://www.w3.org/2000/svg">
<rect width="70" height="70" rx="10" fill="#2F2BEB"/>
<g clip-path="url(#clip0_1_13444)">
<mask id="mask0_1_13444" style="mask-type:luminance" maskUnits="userSpaceOnUse" x="15" y="15" width="40" height="40">
<path d="M54.9824 15H15V54.9824H54.9824V15Z" fill="white"/>
</mask>
<g mask="url(#mask0_1_13444)">
<path d="M51.7731 19.0819H46.6604C46.3383 19.0819 46.0747 18.8184 46.0747 18.4963C46.0747 18.1742 46.3383 17.9106 46.6604 17.9106H51.7731C52.0952 17.9106 52.3588 18.1742 52.3588 18.4963C52.3588 18.8184 52.0952 19.0819 51.7731 19.0819Z" fill="white"/>
<path d="M44.3822 19.0819H43.7614C43.4393 19.0819 43.1758 18.8184 43.1758 18.4963C43.1758 18.1742 43.4393 17.9106 43.7614 17.9106H44.3822C44.7043 17.9106 44.9679 18.1742 44.9679 18.4963C44.9679 18.8184 44.7043 19.0819 44.3822 19.0819Z" fill="white"/>
<path d="M51.7731 21.8285H43.7614C43.4393 21.8285 43.1758 21.565 43.1758 21.2429C43.1758 20.9208 43.4393 20.6572 43.7614 20.6572H51.7731C52.0953 20.6572 52.3588 20.9208 52.3588 21.2429C52.3588 21.565 52.0953 21.8285 51.7731 21.8285Z" fill="white"/>
<path d="M37.8579 33.8812H36.382C36.0599 33.8812 35.7964 33.6176 35.7964 33.2955C35.7964 32.9734 36.0599 32.7099 36.382 32.7099H37.8579C38.5255 32.7099 39.0643 32.1711 39.0643 31.5034V29.1081C39.0643 28.786 39.3279 28.5225 39.65 28.5225C39.9721 28.5225 40.2356 28.786 40.2356 29.1081V31.5034C40.2356 32.8153 39.1697 33.8812 37.8579 33.8812Z" fill="white"/>
<path d="M44.5051 54.9591H16.8448C15.8258 54.9591 15 54.1275 15 53.1085C15 52.0894 15.8258 51.2637 16.8448 51.2637H44.5051C45.5242 51.2637 46.3499 52.0894 46.3499 53.1085C46.3499 54.1275 45.5183 54.9591 44.5051 54.9591ZM16.8448 52.435C16.4758 52.435 16.1713 52.7395 16.1713 53.1085C16.1713 53.4774 16.4758 53.782 16.8448 53.782H44.5051C44.8741 53.782 45.1786 53.4774 45.1786 53.1085C45.1786 52.7395 44.8741 52.435 44.5051 52.435H16.8448Z" fill="white"/>
<path d="M32.2474 52.4349C31.9253 52.4349 31.6618 52.1713 31.6618 51.8492C31.6618 50.6779 32.0952 49.5476 32.8917 48.6691L32.9034 48.6515C33.3895 48.1069 33.6647 47.3982 33.6647 46.6603C33.6647 45.7584 33.2548 44.9092 32.5637 44.347V46.4788C32.5637 47.246 31.9371 47.8726 31.1698 47.8726H30.1801C29.4129 47.8726 28.7862 47.246 28.7862 46.4788V44.347C28.101 44.9092 27.6852 45.7584 27.6852 46.6603C27.6852 47.3982 27.9546 48.101 28.4466 48.6515L28.4524 48.6574L28.4583 48.6633C29.2548 49.5476 29.6882 50.6779 29.6882 51.8492C29.6882 52.1713 29.4246 52.4349 29.1025 52.4349C28.7804 52.4349 28.5168 52.1713 28.5168 51.8492C28.5168 50.9649 28.1889 50.1157 27.5915 49.448L27.5798 49.4305C26.8946 48.6633 26.5198 47.6794 26.5198 46.6603C26.5198 45.1669 27.328 43.7789 28.6281 43.041C28.9034 42.8829 29.2431 42.8887 29.5183 43.0469C29.7936 43.2108 29.9634 43.4978 29.9634 43.8199V46.4788C29.9634 46.6018 30.063 46.7013 30.186 46.7013H31.1757C31.2987 46.7013 31.3983 46.6018 31.3983 46.4788V43.8199C31.3983 43.4978 31.5622 43.2108 31.8433 43.0469C32.1186 42.8887 32.4583 42.8829 32.7335 43.041C34.0337 43.7789 34.8419 45.1669 34.8419 46.6603C34.8419 47.6852 34.4671 48.6691 33.7877 49.4305L33.7701 49.4539C33.1728 50.1157 32.8448 50.9649 32.8448 51.8492C32.8331 52.1772 32.5696 52.4349 32.2474 52.4349Z" fill="white"/>
<path d="M18.7305 52.4347C18.4201 52.4347 18.1624 52.1946 18.1449 51.8784L18.0219 49.5943C18.0043 49.2722 18.2503 48.997 18.5724 48.9794C18.8945 48.9618 19.1698 49.2078 19.1873 49.5299L19.3103 51.814C19.3279 52.1361 19.0819 52.4113 18.7598 52.4289C18.7481 52.4347 18.7364 52.4347 18.7305 52.4347Z" fill="white"/>
<path d="M42.6192 52.4347C42.6075 52.4347 42.5958 52.4347 42.5841 52.4347C42.262 52.4171 42.016 52.1419 42.0336 51.8198L42.6134 41.1258C42.6309 40.7919 42.5138 40.4698 42.2854 40.2239C42.057 39.9779 41.7407 39.8432 41.4069 39.8432H19.9428C19.609 39.8432 19.2927 39.9779 19.0643 40.2239C18.8359 40.4698 18.7129 40.7861 18.7364 41.1258L19.0467 46.8183C19.0643 47.1404 18.8183 47.4157 18.4962 47.4332C18.1741 47.4508 17.8989 47.2048 17.8813 46.8827L17.5709 41.1902C17.5358 40.5284 17.7642 39.9017 18.221 39.4215C18.6778 38.9413 19.2927 38.6777 19.9487 38.6777H41.4069C42.0687 38.6777 42.6836 38.9413 43.1346 39.4215C43.5914 39.9017 43.8198 40.5284 43.7847 41.1902L43.2049 51.8842C43.1873 52.1946 42.9296 52.4347 42.6192 52.4347Z" fill="white"/>
<path d="M45.2957 52.7158C44.9736 52.7158 44.7101 52.4523 44.7101 52.1302V49.6763C44.7101 47.527 43.9722 45.4186 42.6252 43.7437C42.4202 43.4918 42.4612 43.1229 42.713 42.9179C42.9648 42.7129 43.3338 42.7539 43.5388 43.0057C45.0498 44.8915 45.8814 47.2576 45.8814 49.6704V52.1302C45.8814 52.4523 45.6178 52.7158 45.2957 52.7158Z" fill="white"/>
<path d="M16.0542 52.7158C15.732 52.7158 15.4685 52.4523 15.4685 52.1302V49.6763C15.4685 47.2634 16.3001 44.8915 17.8111 43.0116C18.0161 42.7598 18.3792 42.7188 18.6369 42.9237C18.8887 43.1287 18.9297 43.4918 18.7247 43.7495C17.3777 45.4186 16.6398 47.527 16.6398 49.6763V52.1302C16.6398 52.4523 16.3763 52.7158 16.0542 52.7158Z" fill="white"/>
<path d="M36.3705 28.2358C36.1128 28.2358 35.861 28.1597 35.6443 28.0074C35.3163 27.7732 35.1172 27.3925 35.1172 26.9884V24.6575C35.1231 23.8493 34.4788 23.1875 33.6824 23.1817H33.6589C33.3778 23.1758 33.1026 23.2227 32.8332 23.3105C32.1597 23.5272 31.5037 23.6326 30.8829 23.6326H30.4437C29.8229 23.6326 29.167 23.5272 28.4935 23.3105C28.2299 23.2285 27.9547 23.1817 27.6794 23.1817C27.6736 23.1817 27.6736 23.1817 27.6677 23.1817H27.6443C26.8537 23.1875 26.2094 23.8434 26.2094 24.6516V26.9825C26.2094 27.3866 26.0162 27.7673 25.6882 28.0016C25.3603 28.2358 24.9386 28.2944 24.5521 28.1656L23.3222 27.738C22.6311 27.4979 22.1626 26.842 22.1626 26.1099V22.8068C22.1626 19.7263 24.6692 17.2256 27.7439 17.2256H33.9459C35.3456 17.2256 36.4818 18.3618 36.4818 19.7615C36.4818 19.8025 36.5169 19.8317 36.5521 19.8317H36.6165C38.0162 19.8317 39.1523 20.9679 39.1523 22.3676V26.1158C39.1523 26.8478 38.6897 27.5038 37.9928 27.7439L36.7629 28.1714C36.6458 28.2124 36.5111 28.2358 36.3705 28.2358ZM33.6589 22.0104C33.6648 22.0104 33.6707 22.0104 33.6765 22.0104H33.6999C35.1406 22.0162 36.3061 23.2051 36.3002 24.6575V26.9825C36.3002 26.9943 36.3002 27.0235 36.3295 27.047C36.3588 27.0704 36.3881 27.0587 36.3998 27.0587L37.6297 26.6312C37.8522 26.555 38.0045 26.3442 38.0045 26.1099V22.3617C38.0045 21.6121 37.3954 20.9972 36.6399 20.9972H36.5755C35.8903 20.9972 35.3339 20.4408 35.3339 19.7556C35.3339 19.006 34.7248 18.391 33.9693 18.391H27.7614C25.331 18.391 23.3515 20.3705 23.3515 22.801V26.1041C23.3515 26.3383 23.5037 26.5492 23.7263 26.6253L24.9562 27.0528C24.9679 27.0587 24.9913 27.0645 25.0264 27.0411C25.0557 27.0177 25.0557 26.9884 25.0557 26.9767V24.6458C25.0499 23.1934 26.2153 22.0045 27.656 21.9986H27.6794C28.0777 21.9986 28.4818 22.0572 28.8625 22.1802C29.4188 22.3559 29.9518 22.4496 30.4496 22.4437H30.8947C31.3983 22.4496 31.9313 22.3559 32.4876 22.1802C32.8683 22.0748 33.2607 22.0104 33.6589 22.0104Z" fill="white"/>
<path d="M30.7073 37.2782C28.9269 37.2665 27.3281 36.6515 25.9459 35.4568C24.5989 34.2972 23.7907 32.5695 23.7146 30.713C23.7029 30.672 23.697 30.6252 23.697 30.5783C23.697 30.2562 23.9606 29.9927 24.2827 29.9927H24.2944C24.6106 29.9927 24.8742 30.2445 24.88 30.5608C24.921 32.1362 25.5887 33.5944 26.7131 34.5666C27.8786 35.5739 29.2197 36.0893 30.7073 36.101C32.1948 36.0776 33.5301 35.5505 34.6897 34.5315C35.779 33.571 36.4349 32.142 36.4818 30.6018C36.4935 30.2796 36.7629 30.0278 37.085 30.0337C37.4071 30.0454 37.659 30.3148 37.6531 30.6369C37.5945 32.4993 36.7922 34.2386 35.4628 35.41C34.0923 36.6164 32.4935 37.243 30.719 37.2723C30.7131 37.2782 30.7073 37.2782 30.7073 37.2782Z" fill="white"/>
<path d="M24.2826 31.2403H23.0001C21.9576 31.2403 21.1143 30.3911 21.1143 29.3545V27.129C21.1143 26.2212 21.7643 25.4364 22.6604 25.2725C22.9766 25.2139 23.2812 25.4247 23.3397 25.741C23.3983 26.0572 23.1875 26.3618 22.8712 26.4203C22.5315 26.4848 22.2856 26.7776 22.2856 27.1231V29.3486C22.2856 29.741 22.6077 30.0631 23.0001 30.0631H23.697V27.4394C23.697 27.1173 23.9605 26.8537 24.2826 26.8537C24.6047 26.8537 24.8683 27.1173 24.8683 27.4394V30.6487C24.8683 30.9826 24.6047 31.2403 24.2826 31.2403Z" fill="white"/>
<path d="M38.3499 31.2403H37.0673C36.7452 31.2403 36.4817 30.9767 36.4817 30.6546V27.4452C36.4817 27.1231 36.7452 26.8596 37.0673 26.8596C37.3894 26.8596 37.653 27.1231 37.653 27.4452V30.069H38.3499C38.7423 30.069 39.0644 29.7468 39.0644 29.3545V27.129C39.0644 26.7834 38.8184 26.4906 38.4788 26.4262C38.1625 26.3676 37.9517 26.0631 38.0102 25.7468C38.0688 25.4306 38.3733 25.2198 38.6896 25.2783C39.5856 25.4423 40.2357 26.2212 40.2357 27.1348V29.3603C40.2357 30.3969 39.3865 31.2403 38.3499 31.2403Z" fill="white"/>
<path d="M35.0937 34.8007H33.6237C32.7394 34.8007 32.0249 34.0803 32.0249 33.2019C32.0249 32.3175 32.7453 31.603 33.6237 31.603H35.0937C35.978 31.603 36.6925 32.3234 36.6925 33.2019C36.6925 34.0803 35.978 34.8007 35.0937 34.8007ZM33.6237 32.7685C33.3895 32.7685 33.1962 32.9617 33.1962 33.196C33.1962 33.4303 33.3895 33.6235 33.6237 33.6235H35.0937C35.328 33.6235 35.5212 33.4303 35.5212 33.196C35.5212 32.9617 35.328 32.7685 35.0937 32.7685H33.6237Z" fill="white"/>
<path d="M34.8242 39.8493C34.7305 39.8493 34.6368 39.8259 34.5431 39.779C33.8052 39.3749 33.3425 38.6077 33.3425 37.7644V35.8024C33.3425 35.4803 33.6061 35.2168 33.9282 35.2168C34.2503 35.2168 34.5138 35.4803 34.5138 35.8024V37.7644C34.5138 38.1743 34.7364 38.5492 35.0995 38.7483C35.3865 38.9005 35.4919 39.2578 35.3337 39.5448C35.2342 39.738 35.0351 39.8493 34.8242 39.8493Z" fill="white"/>
<path d="M26.5197 39.8493C26.3147 39.8493 26.1098 39.738 26.0043 39.5448C25.8521 39.2578 25.9575 38.9064 26.2386 38.7483C26.6017 38.5492 26.8301 38.1743 26.8301 37.7644V35.7966C26.8301 35.4745 27.0936 35.2109 27.4158 35.2109C27.7379 35.2109 28.0014 35.4745 28.0014 35.7966V37.7644C28.0014 38.6019 27.5387 39.3749 26.8008 39.779C26.7071 39.8259 26.6134 39.8493 26.5197 39.8493Z" fill="white"/>
<path d="M44.224 28.9502C44.1362 28.9502 44.0483 28.9385 43.9605 28.9151C43.5388 28.798 43.2519 28.4231 43.2519 27.9839V24.9385C43.2519 24.7101 43.0703 24.5286 42.8419 24.5286C41.5769 24.5286 40.552 23.5037 40.552 22.2387V17.3133C40.552 16.0542 41.5769 15.0234 42.8419 15.0234H52.6926C53.9576 15.0234 54.9825 16.0483 54.9825 17.3133V18.4495C54.9825 18.7716 54.7189 19.0352 54.3968 19.0352C54.0747 19.0352 53.8112 18.7716 53.8112 18.4495V17.3133C53.8112 16.6984 53.3075 16.1947 52.6926 16.1947H42.8419C42.227 16.1947 41.7233 16.6984 41.7233 17.3133V22.2387C41.7233 22.8536 42.227 23.3573 42.8419 23.3573C43.7145 23.3573 44.4232 24.0659 44.4232 24.9385V27.246L46.2972 24.1245C46.5784 23.6501 47.0996 23.3573 47.6501 23.3573H52.6926C53.3075 23.3573 53.8112 22.8536 53.8112 22.2387V21.1845C53.8112 20.8624 54.0747 20.5988 54.3968 20.5988C54.7189 20.5988 54.9825 20.8624 54.9825 21.1845V22.2387C54.9825 23.4978 53.9576 24.5286 52.6926 24.5286H47.6501C47.5095 24.5286 47.3748 24.6047 47.2987 24.7277L45.044 28.4817C44.8683 28.7804 44.5579 28.9502 44.224 28.9502Z" fill="white"/>
</g>
</g>
<defs>
<clipPath id="clip0_1_13444">
<rect width="40" height="40" fill="white" transform="translate(15 15)"/>
</clipPath>
</defs>
</svg>
