<svg width="80" height="80" viewBox="0 0 80 80" fill="none" xmlns="http://www.w3.org/2000/svg">
<rect width="80" height="80" rx="20" fill="white"/>
<g clip-path="url(#clip0_1_12967)">
<path d="M56.0125 38.3784C56.0127 38.3591 56.0129 38.3397 56.0129 38.3204C56.0129 33.1764 51.8298 28.9912 46.6881 28.9912C43.5396 28.9912 40.6021 30.5961 38.884 33.2167C38.2331 32.9374 37.5425 32.7571 36.84 32.6691C37.1673 31.7952 37.3423 30.8588 37.3423 29.8934C37.3423 27.7278 36.4823 25.7079 34.9208 24.2056C33.359 22.703 31.308 21.9261 29.1295 22.0055C25.0002 22.1654 21.6721 25.5272 21.5524 29.6595C21.48 32.1666 22.5607 34.4992 24.5176 36.0592C25.0783 36.5062 25.445 37.127 25.574 37.8118C22.3567 38.5669 20 41.4864 20 44.8451C20 48.8295 23.2434 52.0708 27.2301 52.0708H36.8841C37.2129 55.9378 40.4599 58.9853 44.4103 58.9853C48.3609 58.9853 51.6079 55.9378 51.9366 52.0708H52.7699C56.7566 52.0708 60 48.8295 60 44.8451C60 42.0918 58.4493 39.6011 56.0125 38.3784ZM22.8423 29.6969C22.9406 26.2982 25.7833 23.4263 29.1795 23.295C31.0001 23.223 32.7195 23.8782 34.0264 25.1356C35.3327 26.3921 36.052 28.0819 36.052 29.8934C36.052 31.9377 35.1273 33.8331 33.515 35.0936C32.5523 35.846 31.9777 37.0648 31.9777 38.3532V38.6279H30.0903V34.7377C31.4435 34.4414 32.4601 33.2351 32.4601 31.7943C32.4601 30.1322 31.1078 28.7799 29.4456 28.7799C27.7835 28.7799 26.4312 30.1322 26.4312 31.7943C26.4312 33.2347 27.4474 34.4408 28.8 34.7374V38.6279H26.9191V38.3553C26.9191 37.0641 26.3369 35.8595 25.322 35.0503C23.6853 33.7457 22.7814 31.7945 22.8423 29.6969ZM33.4795 43.4376V43.5884C33.4795 43.9704 33.1689 44.2812 32.7869 44.2812H32.344H26.5474H26.1045C25.7224 44.2812 25.4118 43.9704 25.4118 43.5884V43.4376C25.4118 43.0556 25.7224 42.7448 26.1045 42.7448H32.7869C33.1689 42.7448 33.4795 43.0556 33.4795 43.4376ZM31.586 45.5716C31.3523 46.2812 30.7884 46.9625 30.2148 46.9625H28.6765C28.1029 46.9625 27.5391 46.2812 27.3053 45.5716H31.586ZM33.4795 40.7618C33.4795 41.1438 33.1689 41.4545 32.7869 41.4545H26.1045C25.7224 41.4545 25.4118 41.1438 25.4118 40.7618V40.611C25.4118 40.229 25.7224 39.9182 26.1045 39.9182H26.2739H29.4243C29.4314 39.9184 29.438 39.9203 29.4451 39.9203C29.4523 39.9203 29.4589 39.9184 29.466 39.9182H32.6229H32.7869C33.1689 39.9182 33.4795 40.229 33.4795 40.611V40.7618ZM29.4456 33.5185C28.495 33.5185 27.7216 32.745 27.7216 31.7943C27.7216 30.8437 28.495 30.0703 29.4456 30.0703C30.3963 30.0703 31.1698 30.8437 31.1698 31.7943C31.1698 32.745 30.3963 33.5185 29.4456 33.5185ZM44.4103 57.695C40.9542 57.695 38.1424 54.8835 38.1419 51.4273C38.1419 51.4267 38.142 51.4262 38.142 51.4257C38.142 51.4253 38.1419 51.4249 38.1419 51.4245C38.1429 47.9687 40.9545 45.1576 44.4103 45.1576C47.8669 45.1576 50.679 47.9697 50.679 51.4263C50.679 54.8829 47.8669 57.695 44.4103 57.695ZM52.7699 50.7805H51.9366C51.6072 46.9142 48.3604 43.8673 44.4103 43.8673C40.4603 43.8673 37.2135 46.9142 36.8842 50.7805H27.2301C23.955 50.7805 21.2903 48.118 21.2903 44.8451C21.2903 42.6335 22.5344 40.6541 24.3884 39.6358C24.2234 39.9251 24.1215 40.2549 24.1215 40.611V40.7618C24.1215 41.2789 24.3251 41.7463 24.6504 42.0996C24.3251 42.4531 24.1215 42.9205 24.1215 43.4376V43.5884C24.1215 44.6352 24.9393 45.4862 25.968 45.5578C26.2374 46.9147 27.3249 48.2528 28.6765 48.2528H30.2148C31.5665 48.2528 32.654 46.9147 32.9233 45.5578C33.9521 45.4862 34.7698 44.6352 34.7698 43.5884V43.4376C34.7698 42.9205 34.5663 42.4531 34.2409 42.0996C34.5663 41.7463 34.7698 41.2789 34.7698 40.7618V40.611C34.7698 39.6844 34.1283 38.9102 33.268 38.6937V38.3532C33.268 37.4585 33.6574 36.6199 34.3097 36.11C35.0991 35.4929 35.7479 34.7469 36.242 33.915C37.1427 33.9637 38.0315 34.1973 38.8294 34.6196C39.1373 34.7821 39.5201 34.6712 39.6923 34.3676C41.1215 31.8472 43.8021 30.2815 46.6881 30.2815C51.1183 30.2815 54.7226 33.8877 54.7226 38.3204C54.7226 38.4221 54.7159 38.5218 54.7096 38.6224L54.7022 38.7447C54.6871 39.016 54.8435 39.2676 55.0935 39.3741C57.2902 40.3099 58.7097 42.4575 58.7097 44.8451C58.7097 48.118 56.045 50.7805 52.7699 50.7805Z" fill="#2F2BEB"/>
<path d="M47.5665 48.6592L43.4005 52.8253L41.2541 50.6789C41.0021 50.4269 40.5939 50.4269 40.3418 50.6789C40.0898 50.9307 40.0898 51.3394 40.3418 51.5912L42.9443 54.1937C43.0703 54.3197 43.2354 54.3827 43.4005 54.3827C43.5656 54.3827 43.7306 54.3197 43.8566 54.1937L48.4788 49.5715C48.7308 49.3197 48.7308 48.911 48.4788 48.6592C48.2268 48.4072 47.8185 48.4072 47.5665 48.6592Z" fill="#2F2BEB"/>
</g>
<defs>
<clipPath id="clip0_1_12967">
<rect width="40" height="40" fill="white" transform="translate(20 20)"/>
</clipPath>
</defs>
</svg>
