<svg width="80" height="80" viewBox="0 0 80 80" fill="none" xmlns="http://www.w3.org/2000/svg">
<rect width="80" height="80" rx="20" fill="#2F2BEB"/>
<g clip-path="url(#clip0_1_12939)">
<path d="M45.0667 42.8668C44.6222 42.4223 43.9111 42.4223 43.5111 42.8668L40.2222 46.1557C39.7778 46.6001 39.7778 47.3112 40.2222 47.7112C40.6667 48.1557 41.3778 48.1557 41.7778 47.7112L43.2 46.289V56.5112C43.2 57.1334 43.6889 57.6223 44.3111 57.6223C44.9334 57.6223 45.4222 57.1334 45.4222 56.5112V46.289L46.8445 47.7112C47.0667 47.9334 47.3334 48.0223 47.6445 48.0223C47.9556 48.0223 48.2222 47.9334 48.4445 47.7112C48.8889 47.2668 48.8889 46.5557 48.4445 46.1557L45.0667 42.8668Z" fill="white"/>
<path d="M38.2222 52.4668L36.7999 53.889V43.6668C36.7999 43.0446 36.311 42.5557 35.6888 42.5557C35.0666 42.5557 34.5777 43.0446 34.5777 43.6668V53.889L33.1555 52.4668C32.711 52.0223 31.9999 52.0223 31.5999 52.4668C31.1555 52.9112 31.1555 53.6223 31.5999 54.0223L34.8888 57.3112C35.111 57.5334 35.3777 57.6223 35.6888 57.6223C35.9999 57.6223 36.2666 57.5334 36.4888 57.3112L39.7777 54.0223C40.2222 53.5779 40.2222 52.8668 39.7777 52.4668C39.3777 52.0223 38.6666 52.0223 38.2222 52.4668Z" fill="white"/>
<path d="M54.7111 33.2667C54.7111 33.1333 54.7111 32.9556 54.7111 32.8222C54.7111 27.4 50.3111 23 44.8889 23C41.3778 23 38.1333 24.9111 36.4 27.9333C35.9111 27.8444 35.4222 27.8 34.9333 27.8C31.5111 27.8 28.4889 29.8889 27.2444 33C27.2 33 27.1556 33 27.1111 33C23.2 33 20 36.2 20 40.1556C20 44.1111 23.2 47.3111 27.1556 47.3111H28.4C29.0222 47.3111 29.5111 46.8222 29.5111 46.2C29.5111 45.5778 29.0222 45.0889 28.4 45.0889H27.1556C24.4444 45.0889 22.2222 42.8667 22.2222 40.1556C22.2222 37.4444 24.4444 35.2222 27.1556 35.2222C27.4222 35.2222 27.6444 35.2222 27.8667 35.2667C28.4444 35.3556 28.9778 35 29.1111 34.4667C29.8222 31.8444 32.2222 30.0222 34.9333 30.0222C35.5556 30.0222 36.1333 30.1111 36.6667 30.2889C37.2 30.4667 37.7778 30.2 38 29.6667C39.2444 26.9556 41.9556 25.2222 44.8889 25.2222C49.0667 25.2222 52.4889 28.6444 52.4889 32.8222C52.4889 33.2222 52.4444 33.6222 52.4 33.9778C52.3556 34.2889 52.4444 34.6 52.6222 34.8222C52.8 35.0444 53.0667 35.2222 53.3778 35.2667C55.8667 35.5333 57.7778 37.6222 57.7778 40.1556C57.7778 42.8667 55.5556 45.0889 52.8444 45.0889H51.6C50.9778 45.0889 50.4889 45.5778 50.4889 46.2C50.4889 46.8222 50.9778 47.3111 51.6 47.3111H52.8444C56.8 47.3111 60 44.1111 60 40.1556C60 36.8667 57.7778 34.0667 54.7111 33.2667Z" fill="white"/>
</g>
<defs>
<clipPath id="clip0_1_12939">
<rect width="40" height="40" fill="white" transform="translate(20 20)"/>
</clipPath>
</defs>
</svg>
