<svg width="80" height="80" viewBox="0 0 80 80" fill="none" xmlns="http://www.w3.org/2000/svg">
<rect width="80" height="80" rx="20" fill="#2F2BEB"/>
<path d="M39.8526 48.4001C39.9483 48.4319 40.0517 48.4319 40.1474 48.4001C44.8221 46.8518 47.624 44.323 48.966 40.4417C50.1817 36.9247 50.1558 32.4268 50.1351 28.8127C50.1345 28.7003 50.0935 28.5919 50.0197 28.5072C49.9458 28.4225 49.844 28.3672 49.7328 28.3513C46.2862 27.856 43.0299 26.4652 40.2891 24.3176C40.2066 24.253 40.1048 24.2178 40 24.2178C39.8952 24.2178 39.7934 24.253 39.7109 24.3176C36.9702 26.4653 33.7138 27.8563 30.2672 28.3516C30.156 28.3675 30.0542 28.4229 29.9803 28.5075C29.9065 28.5922 29.8655 28.7006 29.8649 28.813C29.8442 32.4271 29.818 36.9253 31.0341 40.442C32.3757 44.3229 35.1779 46.8516 39.8526 48.4001ZM30.8002 29.218C34.1413 28.6713 37.2989 27.319 40 25.2781C42.7011 27.319 45.8587 28.6713 49.1998 29.218C49.2181 32.6883 49.1998 36.8954 48.0799 40.1355C46.8555 43.6774 44.2859 46.0082 40 47.4609C35.7141 46.0083 33.1445 43.6775 31.9202 40.1356C30.8002 36.8956 30.7819 32.6884 30.8002 29.218ZM59.5312 52.2599H58.809V31.1797C58.8085 30.7442 58.6353 30.3267 58.3273 30.0188C58.0194 29.7109 57.6019 29.5377 57.1664 29.5372H51.8859C51.8859 29.1659 51.8854 28.7929 51.8844 28.4181C51.8835 28.0246 51.8829 27.6294 51.8827 27.2324C51.8827 27.113 51.8372 26.9982 51.7554 26.9112C51.6736 26.8243 51.5618 26.7718 51.4427 26.7645C47.3039 26.5059 43.3781 24.8398 40.3166 22.0428C40.2302 21.9638 40.1173 21.9199 40.0002 21.9199C39.883 21.9199 39.7702 21.9638 39.6838 22.0428C36.6221 24.8398 32.6962 26.5058 28.5573 26.7643C28.4382 26.7716 28.3264 26.8241 28.2446 26.911C28.1628 26.9979 28.1173 27.1128 28.1173 27.2321C28.1173 27.629 28.1167 28.0243 28.1156 28.418C28.1148 28.793 28.1143 29.166 28.1141 29.537H22.8336C22.3981 29.5374 21.9805 29.7107 21.6726 30.0186C21.3646 30.3266 21.1914 30.7442 21.191 31.1797V52.2602H20.4688C20.3444 52.2602 20.2252 52.3095 20.1373 52.3975C20.0494 52.4854 20 52.6046 20 52.7289V55.1703C20.0009 55.9419 20.3078 56.6816 20.8533 57.2271C21.3989 57.7727 22.1386 58.0796 22.9102 58.0805H57.0898C57.8614 58.0796 58.6012 57.7727 59.1468 57.2271C59.6923 56.6814 59.9992 55.9417 60 55.1701V52.7287C60 52.6044 59.9506 52.4851 59.8627 52.3972C59.7748 52.3093 59.6556 52.2599 59.5312 52.2599ZM57.8715 31.1797V52.2602H56.7309V32.084C56.7309 31.9597 56.6815 31.8404 56.5936 31.7525C56.5057 31.6646 56.3864 31.6152 56.2621 31.6152H51.8738C51.879 31.2373 51.8824 30.8571 51.8841 30.4746H57.1664C57.3533 30.4748 57.5326 30.5491 57.6648 30.6813C57.797 30.8135 57.8713 30.9928 57.8715 31.1797ZM24.2068 52.2599V32.5527H28.1443C28.2272 35.7816 28.5247 38.8151 29.5518 41.4984C30.3409 43.5604 31.492 45.2452 33.0699 46.6488C34.8112 48.1977 37.0329 49.3738 39.8617 50.2445C39.9516 50.2722 40.0477 50.2722 40.1375 50.2445C42.9663 49.3738 45.1879 48.1976 46.9293 46.6488C48.5074 45.2452 49.6581 43.5604 50.4473 41.4984C51.4745 38.815 51.772 35.7816 51.8549 32.5531H55.7928V52.2599H24.2068ZM46.6327 53.1974L46.1045 54.8233H33.8956L33.3672 53.1974H46.6327ZM29.0531 28.4199C29.0537 28.1699 29.0541 27.9192 29.0545 27.6678C33.1045 27.3204 36.9384 25.6915 40 23.0176C43.0615 25.6915 46.8954 27.3204 50.9453 27.6678C50.9453 27.9192 50.9458 28.1699 50.9466 28.4199C50.9661 37.7743 50.983 45.8583 39.9998 49.3056C29.0168 45.8584 29.0336 37.7743 29.0531 28.4199ZM22.1285 31.1797C22.1287 30.9928 22.2031 30.8136 22.3353 30.6814C22.4674 30.5492 22.6467 30.4749 22.8336 30.4747H28.1159C28.1177 30.8572 28.1211 31.2374 28.1262 31.6153H23.738C23.6137 31.6153 23.4945 31.6647 23.4066 31.7526C23.3187 31.8405 23.2693 31.9597 23.2693 32.0841V52.2599H22.1287L22.1285 31.1797ZM59.0625 55.1701C59.0619 55.6931 58.8539 56.1945 58.4841 56.5643C58.1143 56.9341 57.6128 57.1422 57.0898 57.1427H22.9102C22.3872 57.1422 21.8857 56.9341 21.5159 56.5643C21.1461 56.1945 20.9381 55.6931 20.9375 55.1701V53.1974H32.3816L33.1092 55.437C33.1398 55.5311 33.1994 55.6131 33.2795 55.6713C33.3596 55.7295 33.456 55.7608 33.555 55.7608H46.4453C46.5443 55.7608 46.6407 55.7294 46.7208 55.6713C46.8009 55.6131 46.8605 55.531 46.8911 55.4369L47.6187 53.1974H59.0625V55.1701ZM24.0512 55.1701C24.0514 55.2315 24.0395 55.2924 24.0161 55.3493C23.9928 55.4061 23.9584 55.4578 23.9151 55.5013C23.8717 55.5449 23.8202 55.5794 23.7634 55.603C23.7067 55.6266 23.6458 55.6388 23.5844 55.6388H23.5805C23.4878 55.6384 23.3974 55.6106 23.3206 55.5589C23.2438 55.5071 23.184 55.4338 23.1488 55.3481C23.1136 55.2624 23.1046 55.1682 23.1229 55.0774C23.1412 54.9866 23.186 54.9033 23.2517 54.8379C23.3173 54.7726 23.4008 54.7281 23.4917 54.7102C23.5826 54.6923 23.6767 54.7017 23.7623 54.7372C23.8478 54.7727 23.9209 54.8328 23.9723 54.9099C24.0237 54.9869 24.0512 55.0775 24.0512 55.1701ZM25.4438 55.1701C25.444 55.2315 25.4321 55.2924 25.4088 55.3493C25.3854 55.4061 25.3511 55.4578 25.3077 55.5013C25.2644 55.5448 25.2129 55.5794 25.1561 55.603C25.0994 55.6266 25.0386 55.6388 24.9771 55.6388H24.9731C24.8805 55.6384 24.7901 55.6106 24.7132 55.5589C24.6364 55.5071 24.5766 55.4338 24.5415 55.3481C24.5063 55.2624 24.4973 55.1682 24.5156 55.0774C24.5339 54.9866 24.5787 54.9033 24.6443 54.8379C24.7099 54.7726 24.7935 54.7281 24.8843 54.7102C24.9752 54.6923 25.0694 54.7017 25.1549 54.7372C25.2404 54.7727 25.3135 54.8328 25.365 54.9099C25.4164 54.9869 25.4438 55.0775 25.4438 55.1701ZM26.8365 55.1701C26.8367 55.2315 26.8248 55.2924 26.8014 55.3493C26.7781 55.4061 26.7437 55.4578 26.7004 55.5013C26.657 55.5448 26.6055 55.5794 26.5488 55.603C26.492 55.6266 26.4312 55.6388 26.3698 55.6388H26.3658C26.2732 55.6384 26.1827 55.6106 26.1059 55.5589C26.0291 55.5071 25.9693 55.4338 25.9341 55.3481C25.8989 55.2624 25.8899 55.1682 25.9082 55.0774C25.9265 54.9866 25.9713 54.9033 26.037 54.8379C26.1026 54.7726 26.1861 54.7281 26.277 54.7102C26.3679 54.6923 26.462 54.7017 26.5476 54.7372C26.6331 54.7727 26.7062 54.8328 26.7576 54.9099C26.809 54.9869 26.8365 55.0775 26.8365 55.1701ZM29.6278 55.1701C29.628 55.2629 29.6007 55.3537 29.5493 55.431C29.498 55.5084 29.4248 55.5687 29.3392 55.6045C29.2536 55.6403 29.1592 55.6499 29.0681 55.6322C28.977 55.6144 28.8932 55.57 28.8273 55.5047C28.7614 55.4393 28.7163 55.3559 28.6978 55.2649C28.6792 55.174 28.688 55.0796 28.7231 54.9936C28.7582 54.9077 28.8179 54.834 28.8948 54.782C28.9717 54.73 29.0623 54.7019 29.1551 54.7013H29.1591C29.2834 54.7013 29.4026 54.7507 29.4905 54.8386C29.5784 54.9265 29.6278 55.0458 29.6278 55.1701ZM28.2352 55.1701C28.2354 55.2629 28.208 55.3537 28.1567 55.431C28.1053 55.5084 28.0322 55.5687 27.9465 55.6045C27.8609 55.6403 27.7666 55.6499 27.6755 55.6322C27.5843 55.6144 27.5005 55.57 27.4346 55.5047C27.3687 55.4393 27.3236 55.3559 27.3051 55.2649C27.2866 55.174 27.2954 55.0796 27.3304 54.9936C27.3655 54.9077 27.4253 54.834 27.5021 54.782C27.579 54.73 27.6696 54.7019 27.7624 54.7013H27.7664C27.8907 54.7013 28.01 54.7507 28.0979 54.8386C28.1858 54.9265 28.2352 55.0458 28.2352 55.1701ZM50.3722 55.1701C50.372 55.0773 50.3993 54.9864 50.4507 54.9091C50.502 54.8318 50.5752 54.7714 50.6608 54.7356C50.7465 54.6998 50.8408 54.6902 50.9319 54.708C51.023 54.7258 51.1068 54.7702 51.1727 54.8355C51.2387 54.9009 51.2837 54.9843 51.3023 55.0753C51.3208 55.1663 51.312 55.2607 51.2769 55.3466C51.2418 55.4326 51.182 55.5062 51.1051 55.5582C51.0283 55.6102 50.9377 55.6383 50.8448 55.6388H50.8409C50.7166 55.6388 50.5974 55.5894 50.5095 55.5015C50.4216 55.4136 50.3722 55.2944 50.3722 55.1701ZM51.7648 55.1701C51.7646 55.0773 51.792 54.9865 51.8433 54.9091C51.8947 54.8318 51.9678 54.7714 52.0535 54.7356C52.1391 54.6998 52.2334 54.6902 52.3245 54.708C52.4157 54.7258 52.4995 54.7701 52.5654 54.8355C52.6313 54.9009 52.6764 54.9843 52.6949 55.0752C52.7135 55.1662 52.7046 55.2606 52.6696 55.3466C52.6345 55.4325 52.5747 55.5061 52.4979 55.5582C52.421 55.6102 52.3304 55.6382 52.2376 55.6388H52.2336C52.1093 55.6388 51.99 55.5894 51.9021 55.5015C51.8142 55.4136 51.7648 55.2944 51.7648 55.1701ZM53.1575 55.1701C53.1573 55.0773 53.1846 54.9865 53.236 54.9091C53.2873 54.8318 53.3605 54.7714 53.4461 54.7356C53.5318 54.6998 53.6261 54.6902 53.7172 54.708C53.8083 54.7258 53.8921 54.7701 53.958 54.8355C54.0239 54.9009 54.069 54.9843 54.0876 55.0752C54.1061 55.1662 54.0973 55.2606 54.0622 55.3466C54.0271 55.4325 53.9674 55.5061 53.8905 55.5582C53.8136 55.6102 53.7231 55.6382 53.6302 55.6388H53.6262C53.5019 55.6388 53.3827 55.5894 53.2948 55.5015C53.2069 55.4136 53.1575 55.2944 53.1575 55.1701ZM55.9488 55.1701C55.9486 55.1086 55.9605 55.0477 55.9839 54.9909C56.0072 54.9341 56.0415 54.8824 56.0849 54.8388C56.1283 54.7953 56.1798 54.7607 56.2365 54.7371C56.2933 54.7135 56.3541 54.7014 56.4155 54.7013H56.4195C56.5122 54.7017 56.6026 54.7295 56.6794 54.7813C56.7562 54.833 56.816 54.9064 56.8512 54.9921C56.8864 55.0777 56.8954 55.1719 56.8771 55.2627C56.8588 55.3535 56.814 55.4369 56.7483 55.5022C56.6827 55.5676 56.5992 55.612 56.5083 55.63C56.4174 55.6479 56.3233 55.6385 56.2377 55.603C56.1522 55.5674 56.0791 55.5073 56.0277 55.4303C55.9763 55.3533 55.9488 55.2627 55.9488 55.1701ZM54.5561 55.1701C54.5559 55.1086 54.5678 55.0477 54.5911 54.9909C54.6145 54.934 54.6488 54.8824 54.6922 54.8388C54.7356 54.7953 54.7871 54.7607 54.8438 54.7371C54.9006 54.7135 54.9614 54.7014 55.0229 54.7013H55.0269C55.1195 54.7017 55.2099 54.7296 55.2867 54.7813C55.3636 54.8331 55.4233 54.9064 55.4585 54.9921C55.4937 55.0778 55.5027 55.172 55.4843 55.2628C55.466 55.3536 55.4212 55.4369 55.3556 55.5023C55.2899 55.5676 55.2064 55.612 55.1155 55.63C55.0247 55.6479 54.9305 55.6385 54.845 55.603C54.7595 55.5674 54.6864 55.5073 54.635 55.4303C54.5835 55.3533 54.5561 55.2627 54.5561 55.1701ZM38.3577 41.2884C38.4201 41.2884 38.4818 41.2759 38.5392 41.2518C38.5967 41.2276 38.6488 41.1923 38.6924 41.1477L46.6699 33.0127C46.713 32.9688 46.7471 32.9168 46.7701 32.8597C46.7931 32.8026 46.8046 32.7415 46.804 32.6799C46.8034 32.6184 46.7907 32.5575 46.7666 32.5009C46.7424 32.4442 46.7074 32.3929 46.6634 32.3498L45.3183 31.0306C45.2743 30.9875 45.2223 30.9535 45.1652 30.9305C45.1081 30.9075 45.047 30.896 44.9855 30.8966C44.9239 30.8972 44.8631 30.9099 44.8065 30.934C44.7498 30.9581 44.6985 30.9932 44.6554 31.0371L38.3577 37.459L35.3445 34.3863C35.2575 34.2976 35.1388 34.2471 35.0145 34.2458C34.8902 34.2446 34.7705 34.2928 34.6817 34.3799L33.3366 35.6992C33.2926 35.7423 33.2576 35.7937 33.2334 35.8503C33.2093 35.907 33.1966 35.9678 33.196 36.0294C33.1954 36.0909 33.2069 36.152 33.2299 36.2091C33.2529 36.2662 33.287 36.3182 33.3301 36.3622L38.023 41.1478C38.0667 41.1923 38.1188 41.2277 38.1762 41.2518C38.2337 41.2759 38.2954 41.2884 38.3577 41.2884ZM35.0034 35.3777L38.0234 38.457C38.0671 38.5015 38.1192 38.5369 38.1766 38.561C38.2341 38.5852 38.2958 38.5976 38.3581 38.5976C38.4205 38.5976 38.4822 38.5852 38.5396 38.561C38.5971 38.5369 38.6492 38.5015 38.6928 38.457L44.997 32.0283L45.6727 32.6909L38.3581 40.1502L34.328 36.0404L35.0034 35.3777Z" fill="white"/>
</svg>
