<svg width="80" height="80" viewBox="0 0 80 80" fill="none" xmlns="http://www.w3.org/2000/svg">
<rect width="80" height="80" rx="20" fill="#2F2BEB"/>
<g clip-path="url(#clip0_1_12982)">
<path d="M55.3278 24.9805H53.4033C53.271 24.639 52.94 24.3958 52.5524 24.3958C52.1818 24.3958 52.0356 24.1124 51.9996 24.0255C51.9636 23.9386 51.8666 23.6348 52.1286 23.3729C52.301 23.2005 52.396 22.9712 52.396 22.7273C52.396 22.4835 52.3011 22.2542 52.1286 22.0817L51.3835 21.3366C51.0276 20.9807 50.4484 20.9806 50.0924 21.3366C49.8304 21.5987 49.5267 21.5017 49.4398 21.4657C49.3529 21.4297 49.0695 21.2835 49.0695 20.9129C49.0695 20.4096 48.6599 20 48.1566 20H47.1029C46.5996 20 46.1902 20.4096 46.1902 20.9129C46.1902 21.2835 45.9068 21.4297 45.8199 21.4657C45.7331 21.5016 45.4293 21.5986 45.1671 21.3364C44.8111 20.9807 44.232 20.9807 43.8761 21.3365L43.131 22.0817C42.9587 22.2542 42.8637 22.4834 42.8637 22.7272C42.8637 22.9711 42.9587 23.2003 43.1311 23.3727C43.3931 23.6347 43.2961 23.9385 43.2601 24.0254C43.2242 24.1123 43.0779 24.3957 42.7073 24.3957C42.3197 24.3957 41.9887 24.6389 41.8565 24.9804H25.0496C23.368 24.9804 22 26.3485 22 28.03V47.8827C22 49.5643 23.3681 50.9323 25.0496 50.9323H34.8105C34.7818 52.8138 34.3294 54.7072 33.8218 55.8437H31.7753C30.6295 55.8437 29.6972 56.7759 29.6972 57.9218C29.6972 59.0677 30.6295 60 31.7753 60H47.943C49.0889 60 50.0212 59.0678 50.0212 57.9219C50.0212 56.776 49.0889 55.8437 47.943 55.8437H45.8907C45.3591 54.6875 44.8776 52.7876 44.8317 50.9324H54.6688C56.3504 50.9324 57.7185 49.5643 57.7185 47.8828V27.3715C57.7184 26.053 56.6459 24.9805 55.3278 24.9805ZM42.9281 25.5161C43.5456 25.4407 44.0627 25.0503 44.3074 24.4593C44.5522 23.8685 44.4627 23.2268 44.0793 22.7368L44.5311 22.2849C45.0211 22.6683 45.6628 22.7578 46.2537 22.5131C46.8446 22.2683 47.2352 21.7513 47.3105 21.1337H47.9493C48.0247 21.7513 48.4152 22.2683 49.0061 22.5131C49.5969 22.7579 50.2387 22.6683 50.7287 22.2849L51.1805 22.7368C50.7971 23.2268 50.7076 23.8685 50.9524 24.4593C51.1971 25.0502 51.7141 25.4407 52.3318 25.5161V26.155C51.7142 26.2304 51.1972 26.6208 50.9524 27.2117C50.7076 27.8026 50.7971 28.4444 51.1805 28.9343L50.7287 29.3861C50.2387 29.0027 49.597 28.9133 49.0061 29.158C48.4152 29.4027 48.0247 29.9197 47.9493 30.5373H47.3106C47.2353 29.9191 46.8449 29.4018 46.2541 29.1571C45.6633 28.9124 45.0213 29.0022 44.5311 29.3861L44.0793 28.9343C44.4627 28.4443 44.5522 27.8026 44.3074 27.2117C44.0627 26.6209 43.5456 26.2304 42.9281 26.155V25.5161ZM25.0496 26.1141H41.7945V26.3623C41.7945 26.8657 42.204 27.2752 42.7073 27.2752C43.0779 27.2752 43.2241 27.5586 43.2601 27.6455C43.2962 27.7324 43.3932 28.0362 43.1311 28.2982C42.7751 28.6542 42.7751 29.2333 43.1311 29.5892L43.8761 30.3343C44.2321 30.6903 44.8111 30.6903 45.1672 30.3343C45.4299 30.0716 45.7335 30.1685 45.8202 30.2044C45.907 30.2404 46.1902 30.3865 46.1902 30.758C46.1902 31.2614 46.5996 31.6709 47.1029 31.6709H48.1566C48.6599 31.6709 49.0695 31.2614 49.0695 30.758C49.0695 30.3874 49.3529 30.2413 49.4398 30.2052C49.5267 30.1693 49.8305 30.0722 50.0926 30.3344C50.4486 30.6903 51.0277 30.6903 51.3836 30.3343L52.1287 29.5892C52.4846 29.2333 52.4846 28.6542 52.1287 28.2982C51.8667 28.0362 51.9637 27.7324 51.9996 27.6455C52.0356 27.5586 52.1818 27.2752 52.5524 27.2752C53.0557 27.2752 53.4653 26.8657 53.4653 26.3623V26.1141H55.3277C56.0208 26.1141 56.5847 26.6781 56.5847 27.3715V44.8602H23.1335V28.0301C23.1335 26.9736 23.9931 26.1141 25.0496 26.1141ZM48.8876 57.9219C48.8876 58.4427 48.4638 58.8664 47.943 58.8664H31.7753C31.2545 58.8664 30.8308 58.4427 30.8308 57.9219C30.8308 57.4011 31.2545 56.9773 31.7753 56.9773H47.943C48.4638 56.9773 48.8876 57.4011 48.8876 57.9219ZM44.6574 55.8437H35.0491C35.5789 54.4566 35.9185 52.6122 35.9439 50.9324H43.698C43.7374 52.5924 44.1014 54.438 44.6574 55.8437ZM54.6687 49.7988H25.0496C23.9931 49.7988 23.1336 48.9393 23.1336 47.8828V45.9937H56.5848V47.8828C56.5848 48.9393 55.7252 49.7988 54.6687 49.7988ZM41.791 47.8963C41.791 48.2093 41.5372 48.4631 41.2242 48.4631H38.4941C38.1811 48.4631 37.9273 48.2093 37.9273 47.8963C37.9273 47.5833 38.1811 47.3295 38.4941 47.3295H41.2242C41.5372 47.3295 41.791 47.5832 41.791 47.8963ZM47.6299 28.9337C49.3383 28.9337 50.7282 27.5439 50.7282 25.8355C50.7282 24.1271 49.3383 22.7372 47.6299 22.7372C45.9215 22.7372 44.5317 24.1271 44.5317 25.8355C44.5317 27.5439 45.9215 28.9337 47.6299 28.9337ZM47.6299 23.8708C48.7132 23.8708 49.5946 24.7522 49.5946 25.8355C49.5946 26.9189 48.7132 27.8001 47.6299 27.8001C46.5466 27.8001 45.6653 26.9189 45.6653 25.8355C45.6653 24.7522 46.5466 23.8708 47.6299 23.8708ZM26.9405 37.2197C27.3541 37.2197 27.6958 37.4485 27.8545 37.8316C28.0132 38.2148 27.9333 38.6182 27.641 38.9107C27.4466 39.105 27.3395 39.3634 27.3395 39.6383C27.3395 39.9132 27.4465 40.1716 27.6409 40.366L28.636 41.3611C29.0372 41.7623 29.6901 41.7623 30.0913 41.3611C30.3844 41.0681 30.788 40.9878 31.1708 41.1464C31.5537 41.305 31.7822 41.6471 31.7822 42.0615C31.7822 42.6289 32.2439 43.0905 32.8112 43.0905H34.2184C34.7858 43.0905 35.2474 42.6289 35.2474 42.0615C35.2474 41.6479 35.4762 41.3062 35.8593 41.1475C36.2425 40.9889 36.6459 41.0686 36.9383 41.361C37.1326 41.5553 37.391 41.6625 37.666 41.6625C37.9409 41.6625 38.1992 41.5554 38.3936 41.3611L39.3886 40.366C39.583 40.1716 39.6901 39.9132 39.6901 39.6383C39.6901 39.3634 39.583 39.105 39.3887 38.9107C39.0962 38.6183 39.0164 38.2149 39.1751 37.8317C39.3338 37.4485 39.6755 37.2198 40.0891 37.2198C40.6565 37.2198 41.1181 36.7582 41.1181 36.1908V34.7836C41.1181 34.2162 40.6565 33.7546 40.0891 33.7546C39.6755 33.7546 39.3338 33.5259 39.1751 33.1427C39.0164 32.7596 39.0962 32.3562 39.3887 32.0637C39.7899 31.6625 39.7899 31.0097 39.3887 30.6084L38.3936 29.6133C37.9924 29.2121 37.3395 29.2121 36.9383 29.6133C36.6459 29.9056 36.2426 29.9856 35.8593 29.8269C35.4762 29.6682 35.2474 29.3265 35.2474 28.9129C35.2474 28.3456 34.7858 27.884 34.2184 27.884H32.8112C32.2439 27.884 31.7822 28.3456 31.7822 28.9129C31.7822 29.3265 31.5535 29.6682 31.1703 29.8269C30.7872 29.9856 30.3838 29.9058 30.0912 29.6133C29.69 29.2122 29.0372 29.2121 28.636 29.6133L27.6409 30.6084C27.2397 31.0097 27.2397 31.6625 27.6409 32.0637C27.9333 32.3562 28.0132 32.7595 27.8545 33.1426C27.6958 33.5258 27.3541 33.7546 26.9405 33.7546C26.3731 33.7546 25.9115 34.2162 25.9115 34.7836V36.1908C25.9115 36.7581 26.3731 37.2197 26.9405 37.2197ZM27.0451 34.8856C27.8747 34.8473 28.5801 34.3529 28.9018 33.5763C29.2235 32.7997 29.0742 31.9514 28.5147 31.3376L29.3653 30.4869C29.9791 31.0465 30.8274 31.1957 31.6041 30.8741C32.3807 30.5524 32.875 29.8469 32.9133 29.0174H34.1163C34.1546 29.847 34.6489 30.5524 35.4255 30.8741C36.2021 31.1957 37.0504 31.0465 37.6643 30.4869L38.5149 31.3376C37.9554 31.9514 37.8061 32.7997 38.1278 33.5763C38.4495 34.353 39.1549 34.8473 39.9845 34.8856V36.0885C39.1549 36.1269 38.4495 36.6211 38.1278 37.3977C37.8061 38.1744 37.9554 39.0226 38.5149 39.6365L37.6643 40.4872C37.0505 39.9277 36.2022 39.7783 35.4256 40.1001C34.6489 40.4218 34.1546 41.1272 34.1163 41.9568H32.9134C32.8751 41.1264 32.3809 40.4206 31.6045 40.099C30.8282 39.7774 29.9797 39.927 29.3653 40.4872L28.5147 39.6365C29.0742 39.0227 29.2235 38.1744 28.9018 37.3977C28.5801 36.6211 27.8747 36.1269 27.0451 36.0885V34.8856ZM33.5149 39.4348C35.6916 39.4348 37.4626 37.6639 37.4626 35.4871C37.4626 33.3103 35.6916 31.5394 33.5149 31.5394C31.3381 31.5394 29.5672 33.3103 29.5672 35.4871C29.5672 37.6639 31.3381 39.4348 33.5149 39.4348ZM33.5149 32.673C35.0666 32.673 36.329 33.9354 36.329 35.4871C36.329 37.0388 35.0666 38.3012 33.5149 38.3012C31.9631 38.3012 30.7008 37.0388 30.7008 35.4871C30.7008 33.9354 31.9631 32.673 33.5149 32.673ZM42.9345 42.5236C42.9345 42.2106 43.1883 41.9568 43.5013 41.9568H48.8514C49.1645 41.9568 49.4182 42.2106 49.4182 42.5236C49.4182 42.8366 49.1645 43.0904 48.8514 43.0904H43.5013C43.1883 43.0904 42.9345 42.8366 42.9345 42.5236ZM42.9345 35.4871C42.9345 35.1741 43.1883 34.9203 43.5013 34.9203H54.2016C54.5147 34.9203 54.7684 35.1741 54.7684 35.4871C54.7684 35.8001 54.5147 36.0539 54.2016 36.0539H43.5013C43.1883 36.0539 42.9345 35.8001 42.9345 35.4871ZM42.9345 39.0053C42.9345 38.6923 43.1883 38.4385 43.5013 38.4385H54.2016C54.5147 38.4385 54.7684 38.6923 54.7684 39.0053C54.7684 39.3183 54.5147 39.5721 54.2016 39.5721H43.5013C43.1883 39.5721 42.9345 39.3184 42.9345 39.0053Z" fill="white"/>
</g>
<defs>
<clipPath id="clip0_1_12982">
<rect width="40" height="40" fill="white" transform="translate(20 20)"/>
</clipPath>
</defs>
</svg>
