<svg width="282" height="60" viewBox="0 0 282 60" fill="none" xmlns="http://www.w3.org/2000/svg">
<g clip-path="url(#clip0_1_12774)">
<mask id="mask0_1_12774" style="mask-type:luminance" maskUnits="userSpaceOnUse" x="0" y="0" width="282" height="60">
<path d="M282 0H0V60H282V0Z" fill="white"/>
</mask>
<g mask="url(#mask0_1_12774)">
<path d="M141.134 19.8599C139.107 19.8599 137.119 20.2583 135.172 21.0153C133.264 21.7723 131.554 22.8878 130.084 24.4018C128.613 25.876 127.381 27.7486 126.466 30.0195C125.592 32.2109 125.115 34.8404 125.115 37.7887C125.115 40.2589 125.473 42.5299 126.148 44.6814C126.864 46.793 127.937 48.6656 129.408 50.2194C130.879 51.7334 132.747 52.9685 134.933 53.845C137.199 54.7215 139.822 55.1996 142.804 55.1996C143.996 55.1996 145.189 55.1199 146.381 55.0004C147.574 54.8809 148.687 54.7215 149.681 54.4825C150.754 54.3231 151.708 54.0841 152.543 53.845C153.377 53.6059 154.053 53.3271 154.57 53.088L153.298 45.3587C152.225 45.8368 150.873 46.2352 149.164 46.5539C147.494 46.8328 145.825 46.9922 144.076 46.9922C141.373 46.9922 139.186 46.4344 137.596 45.279C135.967 44.1236 135.092 42.5697 134.854 40.6175H156.319C156.359 40.0995 156.398 39.5418 156.438 38.9043C156.478 38.227 156.518 37.5895 156.518 37.0716C156.518 31.414 155.126 27.1509 152.384 24.2425C149.641 21.334 145.865 19.8599 141.134 19.8599ZM134.814 34.1233C134.933 33.3264 135.132 32.5296 135.37 31.7726C135.649 30.9758 136.086 30.2586 136.563 29.661C137.08 29.0633 137.716 28.5852 138.471 28.2665C139.226 27.8681 140.14 27.7087 141.214 27.7087C142.327 27.7087 143.241 27.9079 143.957 28.2665C144.712 28.6649 145.348 29.143 145.785 29.7407C146.302 30.3383 146.66 31.0156 146.858 31.7726C147.097 32.5296 147.256 33.3264 147.296 34.1233H134.814Z" fill="white"/>
<path d="M125.711 10.0986H89.2203V18.585H102.497V54.2833H112.435V18.585H125.711V10.0986Z" fill="white"/>
<path d="M184.303 46.7133C182.991 46.9125 181.759 47.032 180.606 47.032C177.386 47.032 175.121 46.1954 173.809 44.5618C172.537 42.8885 171.901 40.5776 171.901 37.5497C171.901 34.7209 172.577 32.4101 173.928 30.657C175.319 28.904 177.426 28.0275 180.209 28.0275C181.521 28.0275 182.713 28.147 183.786 28.4259C184.86 28.6649 185.814 28.9837 186.728 29.3024L188.715 21.7324C187.324 21.1348 185.893 20.6965 184.383 20.3778C182.912 20.0192 181.282 19.8599 179.493 19.8599C176.79 19.8599 174.365 20.338 172.259 21.2543C170.152 22.1707 168.323 23.4456 166.853 25.0792C165.382 26.633 164.229 28.5056 163.434 30.6969C162.679 32.8085 162.281 35.0795 162.281 37.5098C162.281 40.0199 162.599 42.3705 163.235 44.522C163.911 46.6336 164.945 48.5062 166.336 50.06C167.767 51.6139 169.595 52.8888 171.821 53.8052C174.008 54.6817 176.671 55.1598 179.692 55.1598C181.68 55.1598 183.508 55.0004 185.178 54.6418C186.847 54.2833 188.199 53.8848 189.312 53.4466L187.96 45.6774C186.847 46.1555 185.615 46.4743 184.303 46.7133Z" fill="white"/>
<path d="M221.509 24.2426C220.436 22.888 219.005 21.8521 217.177 21.135C215.388 20.378 213.162 19.9796 210.419 19.9796C209.505 19.9796 208.511 20.0991 207.478 20.2983C206.484 20.4577 205.689 20.6569 205.053 20.8561V4.7998L195.592 6.3138V54.2834H205.053V28.7846C205.649 28.6253 206.285 28.4659 207.04 28.3464C207.796 28.187 208.591 28.1073 209.465 28.1073C211.572 28.1073 213.043 28.7448 213.798 30.0197C214.593 31.2947 214.99 33.4461 214.99 36.514V54.2834H224.451V35.3585C224.451 33.0477 224.212 30.9759 223.735 29.1034C223.378 27.2308 222.622 25.6371 221.509 24.2426Z" fill="white"/>
<path d="M281.373 29.1033C280.896 27.2307 280.141 25.637 279.028 24.2426C277.915 22.8879 276.405 21.8521 274.497 21.1349C272.628 20.3779 270.283 19.9795 267.421 19.9795C264.638 19.9795 261.935 20.1787 259.391 20.617C256.847 21.0154 254.78 21.4138 253.151 21.8919V54.2834H262.611V28.3861C263.207 28.3064 263.883 28.2268 264.638 28.1869C265.394 28.1072 266.109 28.0674 266.785 28.0674C268.971 28.0674 270.482 28.7049 271.317 29.9798C272.112 31.2547 272.509 33.4062 272.509 36.474V54.2834H281.97V35.3585C282.089 33.0476 281.85 30.9759 281.373 29.1033Z" fill="#2BC8EB"/>
<path d="M243.65 10.0986H233.713V54.2833H243.65V10.0986Z" fill="#2BC8EB"/>
<mask id="mask1_1_12774" style="mask-type:luminance" maskUnits="userSpaceOnUse" x="0" y="0" width="82" height="60">
<path d="M81.2542 0H0V60H81.2542V0Z" fill="white"/>
</mask>
<g mask="url(#mask1_1_12774)">
<path d="M29.1957 37.4799C33.2584 37.4799 36.6041 34.1999 36.6838 30.1199C36.6838 29.9199 36.6838 29.6799 36.6838 29.4799C36.6041 28.0399 37.0821 26.5999 38.0779 25.5599L46.6812 16.5599C47.7567 15.4399 49.2702 14.8399 50.8236 14.9599C51.0228 14.9999 51.2618 14.9999 51.4609 14.9999C51.6601 14.9999 51.899 14.9999 52.0982 14.9599C53.6516 14.8399 55.1651 15.4399 56.2406 16.5599L64.844 25.5599C65.8397 26.5999 66.3575 28.0399 66.238 29.5199C66.238 29.6799 66.238 29.8399 66.238 29.9999C66.238 30.1199 66.238 30.2399 66.238 30.3599C66.3177 31.8399 65.7601 33.2399 64.7245 34.2799L55.6431 43.4399C54.6075 44.4799 53.2135 45.0399 51.7796 44.9999C51.6202 44.9999 51.4609 44.9999 51.3016 44.9999C47.2389 45.0799 43.9329 48.4399 43.9329 52.5199C43.9329 56.6799 47.2787 59.9999 51.4211 59.9999C55.5236 59.9999 58.8694 56.6799 58.9092 52.5999C58.9092 52.4399 58.9092 52.2799 58.9092 52.1199C58.8296 50.6799 59.3872 49.2399 60.4228 48.1999L69.5041 39.0399C70.5397 37.9999 71.9338 37.4399 73.3677 37.5199C73.527 37.5199 73.6863 37.5199 73.8457 37.5199C77.9482 37.4399 81.2541 34.0399 81.2143 29.9199C81.1346 25.8399 77.8287 22.5599 73.7262 22.5599C73.6863 22.5599 73.6067 22.5599 73.5668 22.5599C72.1329 22.5999 70.7389 22.0399 69.7431 20.9999L60.3829 11.1599C59.4668 10.1999 58.9889 8.9599 58.9889 7.6399C58.9889 7.5999 58.9889 7.5999 58.9889 7.5599C58.9889 3.4399 55.6431 0.0799001 51.5406 0.0399001C47.3982 -9.98043e-05 44.0126 3.3999 44.0126 7.5599C44.0126 7.5599 44.0126 7.5599 44.0126 7.5999C44.0126 8.9599 43.4948 10.2399 42.5787 11.2399L33.2584 20.8799C32.2626 21.9199 30.8287 22.5199 29.3948 22.4799C29.3151 22.4799 29.2355 22.4799 29.1558 22.4799C25.0533 22.5599 21.7075 25.9199 21.7075 29.9999C21.7075 34.1599 25.0931 37.4799 29.1957 37.4799Z" fill="#2BC8EB"/>
<path d="M52.0584 22.52C47.9957 22.52 44.6499 25.8 44.5703 29.88C44.5703 30.08 44.5703 30.32 44.5703 30.52C44.6499 31.96 44.172 33.4 43.1762 34.44L34.5728 43.44C33.4974 44.56 31.9838 45.16 30.4305 45.04C30.2313 45 29.9923 45 29.7932 45C29.5542 45 29.355 45 29.1559 45.04C27.6025 45.16 26.0889 44.56 25.0135 43.44L16.4101 34.44C15.4144 33.4 14.8966 31.96 15.016 30.48C15.016 30.32 15.016 30.16 15.016 30C15.016 29.88 15.016 29.76 15.016 29.64C14.9364 28.16 15.494 26.76 16.5296 25.72L25.611 16.56C26.6466 15.52 28.0406 14.96 29.4745 15C29.6338 15 29.7932 15 29.9525 15C34.0152 14.92 37.3211 11.56 37.3211 7.48C37.3211 3.36 33.9754 0 29.833 0C25.6508 0 22.305 3.32 22.2652 7.4C22.2652 7.56 22.2652 7.72 22.2652 7.88C22.3449 9.32 21.7872 10.76 20.7516 11.8L11.7101 20.96C10.6745 22 9.28045 22.56 7.84656 22.52C7.68723 22.52 7.52791 22.52 7.36859 22.52C3.22622 22.56 -0.0797159 26 -5.48838e-05 30.12C0.0796061 34.2 3.38554 37.48 7.48808 37.48C7.52791 37.48 7.60757 37.48 7.6474 37.48C9.0813 37.44 10.4754 38 11.4711 39.04L20.8313 48.88C21.7474 49.84 22.2254 51.08 22.2254 52.4C22.2254 52.44 22.2254 52.44 22.2254 52.48C22.2254 56.6 25.5711 59.96 29.6737 60C33.816 60.04 37.2016 56.64 37.2016 52.48C37.2016 52.48 37.2016 52.48 37.2016 52.44C37.2016 51.08 37.7194 49.8 38.6355 48.8L47.9559 39.04C48.9516 38 50.3855 37.4 51.8194 37.44C51.8991 37.44 51.9788 37.44 52.0584 37.44C56.161 37.4 59.4669 34.04 59.4669 29.92C59.5466 25.84 56.161 22.52 52.0584 22.52Z" fill="#2F2BEB"/>
</g>
</g>
</g>
<defs>
<clipPath id="clip0_1_12774">
<rect width="282" height="60" fill="white"/>
</clipPath>
</defs>
</svg>
