<svg width="50" height="47" viewBox="0 0 50 47" fill="none" xmlns="http://www.w3.org/2000/svg">
<path d="M45.0156 20.973C45.0159 20.9488 45.0161 20.9247 45.0161 20.9005C45.0161 14.4704 39.7873 9.23901 33.3601 9.23901C29.4245 9.23901 25.7526 11.2452 23.605 14.5209C22.7913 14.1717 21.9281 13.9464 21.0499 13.8364C21.4592 12.744 21.6779 11.5734 21.6779 10.3668C21.6779 7.65971 20.6028 5.13482 18.651 3.25704C16.6987 1.37873 14.135 0.407685 11.4119 0.506917C6.25026 0.706692 2.09016 4.90906 1.94052 10.0743C1.84996 13.2083 3.20087 16.124 5.647 18.074C6.34792 18.6328 6.80624 19.4087 6.96749 20.2648C2.9459 21.2087 0 24.858 0 29.0564C0 34.0369 4.05431 38.0886 9.03767 38.0886H21.1052C21.5161 42.9222 25.5749 46.7317 30.5129 46.7317C35.4511 46.7317 39.5099 42.9222 39.9208 38.0886H40.9623C45.9457 38.0886 50 34.0369 50 29.0564C50 25.6148 48.0616 22.5014 45.0156 20.973ZM3.5529 10.1211C3.67576 5.87276 7.22919 2.28284 11.4743 2.11877C13.7501 2.02873 15.8993 2.84778 17.533 4.41947C19.1658 5.9901 20.0649 8.10231 20.0649 10.3668C20.0649 12.9221 18.9091 15.2913 16.8937 16.867C15.6904 17.8076 14.9721 19.3309 14.9721 20.9415V21.2849H12.6129V16.4221C14.3044 16.0517 15.5751 14.5438 15.5751 12.7428C15.5751 10.6653 13.8848 8.97492 11.807 8.97492C9.7294 8.97492 8.03905 10.6653 8.03905 12.7428C8.03905 14.5434 9.30924 16.051 11 16.4217V21.2849H8.64888V20.9441C8.64888 19.3302 7.92118 17.8244 6.65244 16.8129C4.60665 15.1821 3.47677 12.7431 3.5529 10.1211ZM16.8494 27.297V27.4855C16.8494 27.963 16.4611 28.3515 15.9836 28.3515H15.43H8.18422H7.63058C7.15306 28.3515 6.7648 27.963 6.7648 27.4855V27.297C6.7648 26.8195 7.15306 26.431 7.63058 26.431H15.9836C16.4611 26.431 16.8494 26.8195 16.8494 27.297ZM14.4825 29.9644C14.1903 30.8515 13.4855 31.7031 12.7686 31.7031H10.8456C10.1287 31.7031 9.42383 30.8515 9.13165 29.9644H14.4825ZM16.8494 23.9523C16.8494 24.4298 16.4611 24.8181 15.9836 24.8181H7.63058C7.15306 24.8181 6.7648 24.4298 6.7648 23.9523V23.7638C6.7648 23.2863 7.15306 22.8978 7.63058 22.8978H7.84243H11.7804C11.7892 22.898 11.7975 22.9004 11.8064 22.9004C11.8154 22.9004 11.8236 22.898 11.8325 22.8978H15.7786H15.9836C16.4611 22.8978 16.8494 23.2863 16.8494 23.7638V23.9523ZM11.807 14.8981C10.6188 14.8981 9.65196 13.9312 9.65196 12.7428C9.65196 11.5547 10.6188 10.5878 11.807 10.5878C12.9954 10.5878 13.9622 11.5547 13.9622 12.7428C13.9622 13.9312 12.9954 14.8981 11.807 14.8981ZM30.5129 45.1188C26.1927 45.1188 22.678 41.6043 22.6773 37.2841C22.6773 37.2834 22.6775 37.2828 22.6775 37.2821C22.6775 37.2816 22.6774 37.2811 22.6774 37.2807C22.6786 32.9609 26.1931 29.447 30.5129 29.447C34.8336 29.447 38.3487 32.9621 38.3487 37.2829C38.3487 41.6037 34.8336 45.1188 30.5129 45.1188ZM40.9623 36.4757H39.9207C39.509 31.6427 35.4505 27.8341 30.5129 27.8341C25.5754 27.8341 21.5169 31.6427 21.1052 36.4757H9.03767C4.94372 36.4757 1.6129 33.1475 1.6129 29.0564C1.6129 26.2918 3.16795 23.8177 5.48555 22.5448C5.27925 22.9064 5.15189 23.3186 5.15189 23.7638V23.9523C5.15189 24.5986 5.40634 25.1828 5.81304 25.6245C5.40634 26.0663 5.15189 26.6506 5.15189 27.297V27.4855C5.15189 28.794 6.1741 29.8577 7.46001 29.9473C7.79672 31.6434 9.15609 33.316 10.8456 33.316H12.7686C14.4581 33.316 15.8175 31.6434 16.1542 29.9473C17.4401 29.8577 18.4623 28.794 18.4623 27.4855V27.297C18.4623 26.6506 18.2078 26.0663 17.8011 25.6245C18.2078 25.1828 18.4623 24.5986 18.4623 23.9523V23.7638C18.4623 22.6054 17.6604 21.6378 16.585 21.3672V20.9415C16.585 19.8232 17.0717 18.7749 17.8871 18.1375C18.8738 17.3661 19.6848 16.4337 20.3025 15.3938C21.4284 15.4546 22.5393 15.7467 23.5367 16.2745C23.9216 16.4777 24.4002 16.339 24.6154 15.9594C26.4018 12.809 29.7526 10.8519 33.3601 10.8519C38.8979 10.8519 43.4032 15.3596 43.4032 20.9005C43.4032 21.0276 43.3948 21.1523 43.3869 21.278L43.3778 21.4308C43.3589 21.77 43.5544 22.0845 43.8668 22.2176C46.6127 23.3874 48.3871 26.0719 48.3871 29.0564C48.3871 33.1475 45.0563 36.4757 40.9623 36.4757Z" fill="white"/>
<path d="M34.4585 33.8242L29.251 39.0317L26.568 36.3488C26.253 36.0338 25.7427 36.0338 25.4277 36.3488C25.1127 36.6635 25.1127 37.1744 25.4277 37.4892L28.6808 40.7423C28.8383 40.8998 29.0446 40.9785 29.251 40.9785C29.4573 40.9785 29.6636 40.8998 29.8212 40.7423L35.5989 34.9645C35.9139 34.6498 35.9139 34.1389 35.5989 33.8242C35.2839 33.5091 34.7735 33.5091 34.4585 33.8242Z" fill="white"/>
</svg>
