<svg width="9" height="16" viewBox="0 0 9 16" fill="none" xmlns="http://www.w3.org/2000/svg">
<path d="M2.26296 8.50593H0.396489C0.0949817 8.50593 0 8.39549 0 8.10944V5.82991C0 5.52841 0.110444 5.43342 0.396489 5.43342H2.26407V3.77679C2.24163 3.03369 2.41736 2.298 2.77321 1.64525C3.14708 0.993513 3.74293 0.498015 4.45193 0.249264C4.9178 0.082563 5.40947 -0.000442427 5.90424 0.00408169H7.75305C8.017 0.00408169 8.13076 0.114524 8.13076 0.381794V2.53211C8.13076 2.79606 8.02032 2.90982 7.75305 2.90982C7.24391 2.90982 6.73477 2.90982 6.22563 2.92859C6.12054 2.91318 6.0133 2.92255 5.91247 2.95595C5.81164 2.98935 5.72002 3.04586 5.64491 3.12097C5.5698 3.19607 5.5133 3.2877 5.47989 3.38853C5.44649 3.48936 5.43713 3.5966 5.45254 3.70169C5.43376 4.26715 5.45254 4.81495 5.45254 5.39919H7.6404C7.94191 5.39919 8.05566 5.50963 8.05566 5.81445V8.09619C8.05566 8.3977 7.96179 8.49268 7.6404 8.49268H5.45033V14.641C5.45033 14.9613 5.35645 15.075 5.01629 15.075H2.65945C2.37672 15.075 2.26296 14.9646 2.26296 14.6786V8.50593Z" fill="#121213" fill-opacity="0.4"/>
</svg>
