<svg width="50" height="50" viewBox="0 0 50 50" fill="none" xmlns="http://www.w3.org/2000/svg">
<circle cx="24.9922" cy="25" r="24.5" stroke="#020231" stroke-opacity="0.1"/>
<circle cx="24.9922" cy="25" r="20" fill="#020231"/>
<path fill-rule="evenodd" clip-rule="evenodd" d="M19.7598 17.4791C19.9238 17.3153 20.1208 17.1882 20.3376 17.1063C20.5545 17.0244 20.7862 16.9895 21.0176 17.004C21.249 17.0184 21.4746 17.0819 21.6796 17.1901C21.8845 17.2984 22.0642 17.4489 22.2066 17.6319L23.8893 19.7937C24.1977 20.1903 24.3065 20.7069 24.1846 21.1943L23.6718 23.2475C23.6453 23.3538 23.6467 23.4652 23.676 23.5708C23.7052 23.6764 23.7613 23.7727 23.8387 23.8503L26.1421 26.1537C26.2197 26.2313 26.3161 26.2874 26.4219 26.3167C26.5277 26.3459 26.6393 26.3473 26.7458 26.3206L28.7979 25.8078C29.0385 25.7476 29.2896 25.7429 29.5322 25.7941C29.7749 25.8453 30.0027 25.9509 30.1985 26.1031L32.3603 27.7849C33.1375 28.3896 33.2087 29.5381 32.5131 30.2327L31.5438 31.2021C30.85 31.8958 29.8132 32.2005 28.8467 31.8602C26.3729 30.9898 24.1268 29.5735 22.275 27.7165C20.4181 25.865 19.0019 23.6191 18.1314 21.1456C17.792 20.18 18.0967 19.1422 18.7904 18.4484L19.7598 17.4791ZM28.3048 17.4687C28.3048 17.3444 28.3542 17.2252 28.4421 17.1373C28.53 17.0494 28.6492 17 28.7735 17H32.5234C32.6477 17 32.767 17.0494 32.8549 17.1373C32.9428 17.2252 32.9922 17.3444 32.9922 17.4687V21.2187C32.9922 21.343 32.9428 21.4623 32.8549 21.5502C32.767 21.6381 32.6477 21.6875 32.5234 21.6875C32.3991 21.6875 32.2799 21.6381 32.192 21.5502C32.1041 21.4623 32.0547 21.343 32.0547 21.2187V18.6003L28.1679 22.4881C28.0799 22.5761 27.9605 22.6256 27.8361 22.6256C27.7116 22.6256 27.5922 22.5761 27.5042 22.4881C27.4162 22.4001 27.3667 22.2807 27.3667 22.1562C27.3667 22.0317 27.4162 21.9124 27.5042 21.8243L31.3919 17.9375H28.7735C28.6492 17.9375 28.53 17.8881 28.4421 17.8002C28.3542 17.7123 28.3048 17.5931 28.3048 17.4687Z" fill="#FFD550"/>
</svg>
