<svg width="30" height="30" viewBox="0 0 30 30" fill="none" xmlns="http://www.w3.org/2000/svg">
<circle cx="15" cy="15" r="15" fill="#FFD550" fill-opacity="0.1"/>
<path d="M18.3347 11.3334C18.3347 13.1743 16.8423 14.6666 15.0013 14.6666C13.1604 14.6666 11.668 13.1743 11.668 11.3334C11.668 9.49243 13.1604 8 15.0013 8C16.8423 8 18.3347 9.49243 18.3347 11.3334Z" fill="#FFD550"/>
<path d="M17.8334 16H12.1666C10.4207 16 9 17.4206 9 19.1666V21.5C9 21.776 9.224 22 9.5 22H20.5C20.776 22 21 21.776 21 21.5V19.1666C21 17.4206 19.5793 16 17.8334 16Z" fill="#FFD550"/>
</svg>
