<svg width="30" height="30" viewBox="0 0 30 30" fill="none" xmlns="http://www.w3.org/2000/svg">
<circle cx="15" cy="15" r="15" fill="black" fill-opacity="0.05"/>
<path d="M20.4735 8H19.1651V9.30841C19.1651 9.57009 18.947 9.74455 18.729 9.74455C18.5109 9.74455 18.2928 9.57009 18.2928 9.30841V8H11.3146V9.30841C11.3146 9.57009 11.0966 9.74455 10.8785 9.74455C10.6604 9.74455 10.4424 9.57009 10.4424 9.30841V8H9.13396C8.47975 8 8 8.56698 8 9.30841V10.8785H21.9564V9.30841C21.9564 8.56698 21.1713 8 20.4735 8ZM8 11.7944V19.7757C8 20.5607 8.47975 21.0841 9.17757 21.0841H20.5171C21.215 21.0841 22 20.5171 22 19.7757V11.7944H8ZM11.8816 19.1215H10.8349C10.6604 19.1215 10.486 18.9907 10.486 18.7726V17.6822C10.486 17.5078 10.6168 17.3333 10.8349 17.3333H11.9252C12.0997 17.3333 12.2741 17.4642 12.2741 17.6822V18.7726C12.2305 18.9907 12.0997 19.1215 11.8816 19.1215ZM11.8816 15.1963H10.8349C10.6604 15.1963 10.486 15.0654 10.486 14.8474V13.757C10.486 13.5826 10.6168 13.4081 10.8349 13.4081H11.9252C12.0997 13.4081 12.2741 13.5389 12.2741 13.757V14.8474C12.2305 15.0654 12.0997 15.1963 11.8816 15.1963ZM15.3707 19.1215H14.2804C14.1059 19.1215 13.9315 18.9907 13.9315 18.7726V17.6822C13.9315 17.5078 14.0623 17.3333 14.2804 17.3333H15.3707C15.5452 17.3333 15.7196 17.4642 15.7196 17.6822V18.7726C15.7196 18.9907 15.5888 19.1215 15.3707 19.1215ZM15.3707 15.1963H14.2804C14.1059 15.1963 13.9315 15.0654 13.9315 14.8474V13.757C13.9315 13.5826 14.0623 13.4081 14.2804 13.4081H15.3707C15.5452 13.4081 15.7196 13.5389 15.7196 13.757V14.8474C15.7196 15.0654 15.5888 15.1963 15.3707 15.1963ZM18.8598 19.1215H17.7695C17.595 19.1215 17.4206 18.9907 17.4206 18.7726V17.6822C17.4206 17.5078 17.5514 17.3333 17.7695 17.3333H18.8598C19.0343 17.3333 19.2087 17.4642 19.2087 17.6822V18.7726C19.2087 18.9907 19.0779 19.1215 18.8598 19.1215ZM18.8598 15.1963H17.7695C17.595 15.1963 17.4206 15.0654 17.4206 14.8474V13.757C17.4206 13.5826 17.5514 13.4081 17.7695 13.4081H18.8598C19.0343 13.4081 19.2087 13.5389 19.2087 13.757V14.8474C19.2087 15.0654 19.0779 15.1963 18.8598 15.1963Z" fill="#6F7174"/>
</svg>
