<svg width="30" height="30" viewBox="0 0 30 30" fill="none" xmlns="http://www.w3.org/2000/svg">
<circle cx="15" cy="15" r="15" fill="#FFD550" fill-opacity="0.1"/>
<path d="M21.832 15.504L14.496 8.168C14.384 8.056 14.216 8 14.048 8L8.896 8.392C8.616 8.392 8.392 8.616 8.392 8.896L8 14.048C8 14.216 8.056 14.384 8.168 14.496L15.504 21.832C15.616 21.944 15.784 22 15.896 22C16.008 22 16.176 21.944 16.288 21.832L21.832 16.288C22.056 16.064 22.056 15.728 21.832 15.504ZM9.12 13.88L9.456 9.456L13.88 9.12L19.368 14.608L14.608 19.368L9.12 13.88ZM15.448 20.208L15 19.76L19.76 15L20.208 15.448L15.448 20.208Z" fill="#FFD550"/>
<path d="M11.6408 12.48C12.1047 12.48 12.4808 12.1039 12.4808 11.64C12.4808 11.1761 12.1047 10.8 11.6408 10.8C11.1769 10.8 10.8008 11.1761 10.8008 11.64C10.8008 12.1039 11.1769 12.48 11.6408 12.48Z" fill="#FFD550"/>
</svg>
