<svg width="30" height="30" viewBox="0 0 30 30" fill="none" xmlns="http://www.w3.org/2000/svg">
<circle cx="15" cy="15" r="15" fill="#FFD550" fill-opacity="0.1"/>
<path d="M19.614 11.5145H19.3069V13.9017C19.3069 15.6702 17.868 17.1091 16.0994 17.1091H11.5156V17.4163C11.5156 18.7325 12.5865 19.8033 13.9028 19.8033H18.8065L21.3284 21.9049C21.4035 21.9675 21.4968 22 21.5911 22C21.8165 22 22.0011 21.817 22.0011 21.5898V13.9017C22.0011 12.5834 20.9346 11.5145 19.614 11.5145Z" fill="#FFD550"/>
<path d="M18.4855 13.9017V10.3871C18.4855 9.06651 17.4167 8 16.0983 8H10.3871C9.06651 8 8 9.06876 8 10.3871V18.0753C8 18.3024 8.18457 18.4855 8.41005 18.4855C8.50426 18.4855 8.59761 18.453 8.6727 18.3903L11.1946 16.2888H16.0983C17.4146 16.2888 18.4855 15.218 18.4855 13.9017ZM13.2427 14.5315C13.0163 14.5315 12.8326 14.3478 12.8326 14.1214C12.8326 13.8949 13.0163 13.7112 13.2427 13.7112C13.4691 13.7112 13.6529 13.8949 13.6529 14.1214C13.6529 14.3478 13.4691 14.5315 13.2427 14.5315ZM13.6529 12.7175V12.8034C13.6529 13.0299 13.4692 13.2136 13.2427 13.2136C13.0162 13.2136 12.8326 13.0299 12.8326 12.8034V12.3641C12.8326 12.1376 13.0162 11.9539 13.2427 11.9539C13.6221 11.9539 13.9308 11.6452 13.9308 11.2658C13.9308 10.8863 13.6221 10.5776 13.2427 10.5776C13.0586 10.5776 12.8859 10.6491 12.756 10.779C12.6261 10.9089 12.5546 11.0816 12.5546 11.2652C12.5546 11.4918 12.3709 11.6757 12.1444 11.6757C11.9178 11.6757 11.7342 11.4922 11.7342 11.2658V11.2652C11.7342 10.8625 11.8911 10.4838 12.1759 10.199C12.4608 9.91417 12.8394 9.75726 13.2422 9.75726C14.0745 9.75726 14.7511 10.434 14.7511 11.2658C14.7511 11.9554 14.286 12.5385 13.6529 12.7175Z" fill="#FFD550"/>
</svg>
