<svg width="16" height="15" viewBox="0 0 16 15" fill="none" xmlns="http://www.w3.org/2000/svg">
<path d="M11.982 0.00101299H4.28531C3.78547 -0.0105907 3.28834 0.0775941 2.82299 0.260409C2.35763 0.443224 1.93341 0.716999 1.57513 1.06572C1.21684 1.41444 0.931692 1.8311 0.736356 2.29134C0.541021 2.75157 0.439421 3.24614 0.4375 3.74611L0.4375 11.2363C0.439421 11.7363 0.541021 12.2308 0.736356 12.6911C0.931692 13.1513 1.21684 13.568 1.57513 13.9167C1.93341 14.2654 2.35763 14.5392 2.82299 14.722C3.28834 14.9048 3.78547 14.993 4.28531 14.9814H11.982C12.4819 14.993 12.979 14.9048 13.4444 14.722C13.9097 14.5392 14.3339 14.2654 14.6922 13.9167C15.0505 13.568 15.3357 13.1513 15.531 12.6911C15.7263 12.2308 15.8279 11.7363 15.8298 11.2363V3.74611C15.8279 3.24614 15.7263 2.75157 15.531 2.29134C15.3357 1.8311 15.0505 1.41444 14.6922 1.06572C14.3339 0.716999 13.9097 0.443224 13.4444 0.260409C12.979 0.0775941 12.4819 -0.0105907 11.982 0.00101299ZM14.2914 11.2363C14.2929 11.5371 14.2337 11.8352 14.1174 12.1126C14.0011 12.39 13.83 12.6411 13.6144 12.8509C13.3988 13.0607 13.1432 13.2249 12.8627 13.3337C12.5822 13.4424 12.2827 13.4935 11.982 13.4838H4.28531C3.98465 13.4935 3.68512 13.4424 3.40464 13.3337C3.12417 13.2249 2.8685 13.0607 2.65292 12.8509C2.43734 12.6411 2.26628 12.39 2.14997 12.1126C2.03365 11.8352 1.97447 11.5371 1.97596 11.2363V3.74611C1.97447 3.4453 2.03365 3.14727 2.14997 2.86985C2.26628 2.59242 2.43734 2.3413 2.65292 2.1315C2.8685 1.92169 3.12417 1.75751 3.40464 1.64877C3.68512 1.54003 3.98465 1.48896 4.28531 1.49861H11.982C12.2827 1.48896 12.5822 1.54003 12.8627 1.64877C13.1432 1.75751 13.3988 1.92169 13.6144 2.1315C13.83 2.3413 14.0011 2.59242 14.1174 2.86985C14.2337 3.14727 14.2929 3.4453 14.2914 3.74611V11.2363Z" fill="#121213" fill-opacity="0.4"/>
<path d="M8.13297 3.64373C7.37194 3.64373 6.62801 3.8694 5.99524 4.2922C5.36247 4.71501 4.86929 5.31595 4.57805 6.01905C4.28682 6.72214 4.21062 7.49581 4.35909 8.24221C4.50756 8.98861 4.87403 9.67423 5.41216 10.2124C5.95028 10.7505 6.6359 11.1169 7.3823 11.2654C8.1287 11.4139 8.90237 11.3377 9.60546 11.0465C10.3086 10.7552 10.9095 10.262 11.3323 9.62927C11.7551 8.9965 11.9808 8.25257 11.9808 7.49154C11.9856 6.98488 11.8894 6.48234 11.6978 6.01331C11.5062 5.54427 11.2229 5.11815 10.8646 4.75988C10.5064 4.4016 10.0802 4.11836 9.6112 3.92671C9.14216 3.73506 8.63962 3.63886 8.13297 3.64373ZM8.13297 9.80089C7.67622 9.80089 7.22973 9.66545 6.84996 9.41169C6.47019 9.15794 6.1742 8.79727 5.99941 8.37529C5.82462 7.95331 5.77889 7.48898 5.86799 7.04101C5.9571 6.59304 6.17704 6.18155 6.50001 5.85858C6.82298 5.53562 7.23447 5.31567 7.68244 5.22657C8.13041 5.13746 8.59474 5.18319 9.01672 5.35798C9.4387 5.53277 9.79937 5.82876 10.0531 6.20854C10.3069 6.58831 10.4423 7.03479 10.4423 7.49154C10.448 7.79638 10.3922 8.09923 10.2781 8.38198C10.1641 8.66474 9.9942 8.9216 9.77861 9.13718C9.56302 9.35277 9.30617 9.52267 9.02341 9.63671C8.74065 9.75074 8.4378 9.80659 8.13297 9.80089Z" fill="#121213" fill-opacity="0.4"/>
<path d="M11.8454 4.66842C12.3706 4.66842 12.7963 4.24268 12.7963 3.71751C12.7963 3.19234 12.3706 2.7666 11.8454 2.7666C11.3203 2.7666 10.8945 3.19234 10.8945 3.71751C10.8945 4.24268 11.3203 4.66842 11.8454 4.66842Z" fill="#121213" fill-opacity="0.4"/>
</svg>
