<svg width="16" height="15" viewBox="0 0 16 15" fill="none" xmlns="http://www.w3.org/2000/svg">
<path d="M13.5422 0.000976563H2.68245C2.19065 0.000976563 1.719 0.196343 1.37124 0.544096C1.02349 0.89185 0.828125 1.36351 0.828125 1.8553V12.7151C0.828125 13.2069 1.02349 13.6785 1.37124 14.0263C1.719 14.3741 2.19065 14.5694 2.68245 14.5694H13.5422C14.034 14.5694 14.5057 14.3741 14.8535 14.0263C15.2012 13.6785 15.3966 13.2069 15.3966 12.7151V1.8553C15.3966 1.36351 15.2012 0.89185 14.8535 0.544096C14.5057 0.196343 14.034 0.000976563 13.5422 0.000976563ZM5.75164 11.7079H3.68527V5.80914H5.75164V11.7079ZM4.71901 4.92008C4.51477 4.92008 4.31512 4.85951 4.1453 4.74605C3.97549 4.63258 3.84313 4.4713 3.76498 4.28261C3.68682 4.09392 3.66637 3.88629 3.70621 3.68598C3.74606 3.48567 3.84441 3.30168 3.98882 3.15726C4.13324 3.01284 4.31724 2.91449 4.51755 2.87465C4.71786 2.8348 4.92549 2.85525 5.11418 2.93341C5.30287 3.01157 5.46414 3.14392 5.57761 3.31374C5.69108 3.48356 5.75164 3.68321 5.75164 3.88744C5.75164 4.16131 5.64285 4.42397 5.44919 4.61763C5.25553 4.81128 4.99288 4.92008 4.71901 4.92008ZM12.535 11.7079H10.7679V8.83636C10.7679 8.15051 10.6917 7.26808 9.75187 7.26808C8.812 7.26808 8.64744 8.01578 8.64744 8.78666V11.7079H6.93227V5.80914H8.57786V6.60543H8.60326C8.79284 6.32732 9.05469 6.10619 9.36062 5.96588C9.66655 5.82556 10.005 5.77137 10.3394 5.80914C12.196 5.80914 12.5394 6.87491 12.5394 8.46748L12.535 11.7079Z" fill="#121213" fill-opacity="0.4"/>
</svg>
