<svg width="180" height="53" viewBox="0 0 180 53" fill="none" xmlns="http://www.w3.org/2000/svg">
<path d="M47.4664 44.1037C47.193 44.1037 46.9606 44.0338 46.7692 43.894C46.5778 43.7542 46.4821 43.5845 46.4821 43.3848V26.8199H38.8945C38.6211 26.8199 38.3887 26.75 38.1973 26.6102C38.0059 26.4704 37.9102 26.3007 37.9102 26.101V23.8843C37.9102 23.6647 38.0059 23.485 38.1973 23.3452C38.3887 23.2054 38.6211 23.1355 38.8945 23.1355H59.8116C60.1124 23.1355 60.3585 23.2054 60.5499 23.3452C60.7413 23.485 60.837 23.6647 60.837 23.8843V26.101C60.837 26.3007 60.7413 26.4704 60.5499 26.6102C60.3585 26.75 60.1124 26.8199 59.8116 26.8199H52.2651V43.3848C52.2651 43.5845 52.1694 43.7542 51.978 43.894C51.7866 44.0338 51.5405 44.1037 51.2397 44.1037H47.4664Z" fill="#020231"/>
<path d="M62.7672 44.1037C62.4938 44.1037 62.2614 44.0338 62.07 43.894C61.8786 43.7542 61.7829 43.5845 61.7829 43.3848V29.2762C61.7829 29.0565 61.8786 28.8768 62.07 28.737C62.2614 28.5972 62.4938 28.5273 62.7672 28.5273H66.0894C66.3628 28.5273 66.5952 28.5972 66.7866 28.737C67.0053 28.8768 67.1147 29.0565 67.1147 29.2762V30.5043C67.7436 29.8653 68.5502 29.376 69.5345 29.0365C70.5462 28.697 71.7083 28.5273 73.0207 28.5273H74.7023C75.0031 28.5273 75.2355 28.5972 75.3995 28.737C75.5909 28.8768 75.6866 29.0465 75.6866 29.2462V31.4029C75.6866 31.6026 75.5909 31.7724 75.3995 31.9122C75.2355 32.052 75.0031 32.1218 74.7023 32.1218H71.5032C70.1908 32.1218 69.1654 32.3914 68.4272 32.9306C67.7162 33.4698 67.3608 34.2087 67.3608 35.1473V43.3848C67.3608 43.5845 67.2651 43.7542 67.0737 43.894C66.8823 44.0338 66.6362 44.1037 66.3354 44.1037H62.7672Z" fill="#020231"/>
<path d="M84.7581 44.4032C83.3363 44.4032 82.0512 44.2035 80.9028 43.8041C79.7544 43.3848 78.8384 42.8356 78.1549 42.1566C77.4986 41.4577 77.1705 40.6789 77.1705 39.8202C77.1705 38.4223 77.9361 37.314 79.4673 36.4952C81.0258 35.6565 83.0765 35.0973 85.6194 34.8178L91.2383 34.2187V33.5896C91.2383 32.7509 90.9512 32.1019 90.377 31.6426C89.8028 31.1833 88.8185 30.9536 87.424 30.9536C86.4397 30.9536 85.6331 31.1034 85.0042 31.4029C84.4027 31.6825 83.9515 32.0619 83.6507 32.5412C83.432 32.8008 83.1176 32.9306 82.7074 32.9306H79.4673C79.1665 32.9306 78.9341 32.8707 78.7701 32.7509C78.6334 32.6311 78.565 32.4713 78.565 32.2716C78.5923 31.9521 78.7701 31.5627 79.0982 31.1034C79.4263 30.6441 79.9458 30.2048 80.6567 29.7854C81.3676 29.3461 82.2836 28.9766 83.4047 28.6771C84.5257 28.3775 85.8792 28.2278 87.465 28.2278C89.1876 28.2278 90.6368 28.3875 91.8125 28.707C93.0156 29.0066 93.9726 29.416 94.6835 29.9352C95.3944 30.4544 95.9139 31.0635 96.242 31.7624C96.5702 32.4613 96.7342 33.2002 96.7342 33.979V43.3848C96.7342 43.5845 96.6385 43.7542 96.4471 43.894C96.2557 44.0338 96.0233 44.1037 95.7499 44.1037H92.4277C92.127 44.1037 91.8809 44.0338 91.6895 43.894C91.5254 43.7542 91.4434 43.5845 91.4434 43.3848V42.2165C91.0879 42.5959 90.6095 42.9554 90.0079 43.2949C89.4064 43.6144 88.6681 43.884 87.7931 44.1037C86.9455 44.3034 85.9338 44.4032 84.7581 44.4032ZM86.1526 41.5575C87.1096 41.5575 87.9709 41.4078 88.7365 41.1082C89.5294 40.8087 90.1446 40.3494 90.5821 39.7303C91.0469 39.0913 91.2793 38.2925 91.2793 37.3339V36.7049L87.1779 37.1842C85.5647 37.3639 84.3616 37.6535 83.5687 38.0528C82.7758 38.4522 82.3793 38.9415 82.3793 39.5206C82.3793 39.9599 82.557 40.3394 82.9125 40.6589C83.2953 40.9584 83.7738 41.1881 84.348 41.3478C84.9222 41.4876 85.5237 41.5575 86.1526 41.5575Z" fill="#020231"/>
<path d="M102.98 44.1037C102.707 44.1037 102.474 44.0338 102.283 43.894C102.092 43.7542 101.996 43.5845 101.996 43.3848V29.2462C101.996 29.0465 102.092 28.8768 102.283 28.737C102.474 28.5972 102.707 28.5273 102.98 28.5273H106.343C106.617 28.5273 106.849 28.5972 107.041 28.737C107.232 28.8768 107.328 29.0465 107.328 29.2462V30.4743C108.039 29.8353 108.941 29.3061 110.035 28.8868C111.156 28.4474 112.536 28.2278 114.177 28.2278C115.845 28.2278 117.294 28.5073 118.525 29.0665C119.755 29.6057 120.698 30.3745 121.354 31.373C122.038 32.3715 122.38 33.5696 122.38 34.9675V43.3848C122.38 43.5845 122.284 43.7542 122.093 43.894C121.901 44.0338 121.669 44.1037 121.396 44.1037H117.786C117.513 44.1037 117.28 44.0338 117.089 43.894C116.898 43.7542 116.802 43.5845 116.802 43.3848V35.1473C116.802 33.989 116.405 33.0804 115.613 32.4214C114.847 31.7624 113.726 31.4329 112.249 31.4329C110.828 31.4329 109.693 31.7624 108.845 32.4214C107.998 33.0804 107.574 33.989 107.574 35.1473V43.3848C107.574 43.5845 107.478 43.7542 107.287 43.894C107.095 44.0338 106.863 44.1037 106.589 44.1037H102.98Z" fill="#020231"/>
<path d="M135.669 44.4032C134.029 44.4032 132.621 44.2634 131.445 43.9838C130.297 43.7043 129.353 43.3548 128.615 42.9354C127.877 42.5161 127.33 42.0967 126.974 41.6773C126.619 41.258 126.428 40.9085 126.4 40.6289C126.373 40.4093 126.455 40.2395 126.646 40.1197C126.865 39.9799 127.097 39.91 127.343 39.91H130.584C130.693 39.91 130.789 39.92 130.871 39.94C130.953 39.96 131.062 40.0199 131.199 40.1197C131.554 40.3394 131.923 40.569 132.306 40.8087C132.716 41.0483 133.195 41.258 133.742 41.4377C134.289 41.5975 134.972 41.6773 135.792 41.6773C136.859 41.6773 137.747 41.5276 138.458 41.228C139.197 40.9085 139.566 40.4592 139.566 39.8801C139.566 39.4607 139.402 39.1212 139.074 38.8616C138.773 38.602 138.199 38.3724 137.351 38.1727C136.503 37.953 135.3 37.7233 133.742 37.4837C132.21 37.2241 130.939 36.8946 129.927 36.4952C128.916 36.0958 128.164 35.5966 127.672 34.9975C127.179 34.3984 126.933 33.6995 126.933 32.9007C126.933 32.1218 127.248 31.383 127.877 30.684C128.533 29.9651 129.49 29.376 130.748 28.9167C132.033 28.4574 133.619 28.2278 135.505 28.2278C136.982 28.2278 138.267 28.3675 139.361 28.6471C140.454 28.9067 141.357 29.2362 142.068 29.6356C142.806 30.035 143.366 30.4444 143.749 30.8638C144.132 31.2631 144.337 31.6126 144.364 31.9122C144.392 32.1318 144.31 32.3116 144.118 32.4513C143.927 32.5712 143.708 32.6311 143.462 32.6311H140.427C140.29 32.6311 140.167 32.6111 140.058 32.5712C139.948 32.5312 139.839 32.4813 139.73 32.4214C139.429 32.2217 139.101 32.012 138.745 31.7923C138.39 31.5727 137.952 31.383 137.433 31.2232C136.941 31.0435 136.285 30.9536 135.464 30.9536C134.425 30.9536 133.632 31.1234 133.085 31.4628C132.539 31.7824 132.265 32.1917 132.265 32.691C132.265 33.0305 132.388 33.33 132.634 33.5896C132.908 33.8293 133.441 34.0589 134.234 34.2786C135.027 34.4982 136.23 34.7279 137.843 34.9675C139.675 35.2072 141.124 35.5666 142.191 36.0459C143.284 36.5052 144.05 37.0444 144.487 37.6634C144.952 38.2625 145.185 38.9315 145.185 39.6704C145.185 40.569 144.815 41.3778 144.077 42.0967C143.366 42.8156 142.3 43.3848 140.878 43.8041C139.484 44.2035 137.747 44.4032 135.669 44.4032Z" fill="#020231"/>
<path d="M150.444 44.1037C150.17 44.1037 149.938 44.0338 149.746 43.894C149.555 43.7542 149.459 43.5845 149.459 43.3848V23.5548C149.459 23.3551 149.555 23.1854 149.746 23.0456C149.938 22.9058 150.17 22.8359 150.444 22.8359H153.848C154.121 22.8359 154.354 22.9058 154.545 23.0456C154.736 23.1854 154.832 23.3551 154.832 23.5548V43.3848C154.832 43.5845 154.736 43.7542 154.545 43.894C154.354 44.0338 154.121 44.1037 153.848 44.1037H150.444Z" fill="#020231"/>
<path d="M169.706 44.4032C167.518 44.4032 165.673 44.1236 164.169 43.5645C162.692 43.0053 161.558 42.2165 160.765 41.1981C159.999 40.1796 159.562 38.9914 159.452 37.6335C159.425 37.274 159.411 36.8347 159.411 36.3155C159.411 35.7963 159.425 35.3569 159.452 34.9975C159.562 33.6196 160.013 32.4314 160.806 31.4329C161.626 30.4144 162.774 29.6256 164.251 29.0665C165.755 28.5073 167.573 28.2278 169.706 28.2278C171.839 28.2278 173.643 28.5073 175.12 29.0665C176.624 29.6256 177.772 30.4144 178.565 31.4329C179.385 32.4314 179.85 33.6196 179.959 34.9975C179.987 35.3569 180 35.7963 180 36.3155C180 36.8347 179.987 37.274 179.959 37.6335C179.85 38.9914 179.399 40.1796 178.606 41.1981C177.84 42.2165 176.706 43.0053 175.202 43.5645C173.725 44.1236 171.893 44.4032 169.706 44.4032ZM169.706 41.4377C171.155 41.4377 172.276 41.1082 173.069 40.4492C173.862 39.7702 174.299 38.7817 174.381 37.4837C174.409 37.1842 174.422 36.7948 174.422 36.3155C174.422 35.8362 174.409 35.4468 174.381 35.1473C174.299 33.8692 173.862 32.8907 173.069 32.2117C172.276 31.5327 171.155 31.1933 169.706 31.1933C168.257 31.1933 167.136 31.5327 166.343 32.2117C165.55 32.8907 165.112 33.8692 165.03 35.1473C165.003 35.4468 164.989 35.8362 164.989 36.3155C164.989 36.7948 165.003 37.1842 165.03 37.4837C165.112 38.7817 165.55 39.7702 166.343 40.4492C167.136 41.1082 168.257 41.4377 169.706 41.4377Z" fill="#020231"/>
<path d="M14.3897 34.6189C13.2404 35.4099 11.9695 35.9756 10.6075 36.306L9.24546 36.6314C9.15938 36.6515 9.06824 36.6615 8.98217 36.6615C8.57711 36.6615 8.20243 36.4412 8.01003 36.0707C7.77712 35.6201 7.89357 35.0795 8.28344 34.754L15.8327 28.4861C14.6682 28.8716 13.5492 29.2421 12.4859 29.5925C10.5467 30.2333 8.80496 30.804 7.30117 31.2947C6.49105 32.2309 6.04043 33.5876 6.71384 35.53L7.19484 36.4762C7.19484 36.4762 13.7264 49.6629 13.9695 50.0785C14.8353 51.5503 16.4454 52.5416 18.2935 52.5416C20.3036 52.5416 22.0403 51.3651 22.8301 49.6679C22.9719 49.3676 34.1212 27.1795 34.1212 27.1795L34.1313 27.1594L35.1085 25.237C35.5996 24.1106 35.9743 22.9291 36.2275 21.6975C34.2123 22.3684 32.2073 23.0392 30.2326 23.695L14.3796 34.6139L14.3897 34.6189Z" fill="#020231"/>
<path d="M12.1183 46.3888C13.1158 48.3913 13.8905 49.9433 13.9715 50.0785C14.8373 51.5503 16.4474 52.5416 18.2955 52.5416C20.3056 52.5416 22.0423 51.3651 22.8322 49.6679C22.9739 49.3676 34.1232 27.1795 34.1232 27.1795L34.1333 27.1594L35.1105 25.237C35.6017 24.1106 35.9763 22.9291 36.2295 21.6975C34.6953 22.2082 33.1612 22.7188 31.6473 23.2244C29.8802 27.5649 23.9461 40.0608 12.1133 46.3838L12.1183 46.3888Z" fill="black"/>
<path d="M18.3036 0C8.19232 0 0 8.10026 0 18.0979C0 20.3608 0.420249 22.5285 1.18986 24.5261C1.50885 25.262 2.70377 27.2645 6.11133 27.0493L9.3113 25.6725C8.7746 24.476 8.47587 23.1493 8.47587 21.7526C8.47587 16.3858 12.8758 12.0402 18.2986 12.0402C22.3441 12.0402 25.8225 14.4583 27.3263 17.9177L36.1566 14.1179C34.3288 6.03765 27.0276 0 18.3036 0Z" fill="#020231"/>
<path d="M27.3262 17.9177L36.1565 14.1179C35.9135 13.0415 35.5692 12.0002 35.1388 11.0039C32.1363 12.3556 28.8959 13.8175 25.625 15.2893C26.3237 16.0653 26.9009 16.9514 27.3212 17.9227L27.3262 17.9177Z" fill="url(#paint0_linear_707_1727)"/>
<path d="M18.3036 0C8.19232 0 0 8.10026 0 18.0979C0 19.1843 0.0962016 20.2506 0.283542 21.287C0.136707 18.4834 4.64299 3.44937 19.0479 4.53574C25.539 5.02637 30.5162 9.61217 31.5136 15.8501L36.1566 14.1179C34.3288 6.03765 27.0276 0 18.3036 0Z" fill="url(#paint1_linear_707_1727)"/>
<path d="M6.11093 27.0492L9.31089 25.6725C8.93115 24.8264 8.67293 23.9103 8.55647 22.954C6.05017 24.0755 3.85272 25.0617 2.12109 25.8277C2.86539 26.5286 4.10588 27.1744 6.11599 27.0442L6.11093 27.0492Z" fill="url(#paint2_linear_707_1727)"/>
<path d="M10.3052 35.0844C11.5103 34.7941 12.6444 34.2884 13.6621 33.5875L25.9304 25.1368C23.5709 25.9228 21.2874 26.6788 19.1254 27.3947L9.6875 35.2296L10.3002 35.0794L10.3052 35.0844Z" fill="white"/>
<path d="M20.555 26.2132L17.8867 28.426C19.8563 27.7702 21.9829 27.0643 24.2056 26.3233L27.9322 23.7551C25.3702 24.6061 22.8892 25.4322 20.555 26.2082V26.2132Z" fill="white"/>
<path d="M70.2602 7.96008C69.6172 6.89873 68.0577 6.26793 66.0476 5.9225C65.7944 5.87744 65.5362 5.83739 65.2729 5.80735C62.4628 5.43688 58.9641 5.54702 55.8806 5.79233C54.2756 5.91749 52.711 6.30799 51.2326 6.94379L4.64062 26.9992C5.82542 27.1744 7.38996 27.0392 9.43551 26.3083L51.7389 8.10026C53.0908 7.51451 54.5186 7.16407 55.9819 7.04892C58.392 6.85868 60.5439 6.7936 62.3768 6.84867L54.1693 9.7974C53.7743 9.93758 53.5718 10.3681 53.7136 10.7586C53.8249 11.064 54.1186 11.2543 54.4275 11.2543C54.5135 11.2543 54.5996 11.2392 54.6857 11.2092L65.8248 7.20412C65.8552 7.19411 65.8856 7.17909 65.916 7.16407C67.6172 7.45444 68.7362 7.93004 69.1514 8.58086C69.1311 8.66597 68.9894 9.07649 67.8704 9.9526C67.1362 10.5333 66.3058 10.9839 65.4046 11.2843C61.4249 12.621 46.3567 17.6323 32.2353 22.3283L28.5087 24.8965C43.6833 19.8501 61.4198 13.9477 65.8096 12.4758C66.8527 12.1304 67.8147 11.6097 68.6653 10.9389C69.1868 10.5283 70.4324 9.54709 70.4324 8.56084C70.4324 8.35558 70.3767 8.15532 70.2602 7.96008Z" fill="white"/>
<path d="M6.75781 32.1257C8.37805 31.59 11.1274 30.6738 14.5906 29.5224L17.259 27.3096C13.9324 28.416 11.0464 29.3722 8.8945 30.0881C8.07932 30.5136 7.22869 31.1594 6.76288 32.1257H6.75781Z" fill="white"/>
<path d="M9.6875 35.2296L10.3002 35.0794C11.5052 34.789 12.6394 34.2834 13.6571 33.5825L35.429 18.5885C35.6062 18.4634 35.4594 18.193 35.2569 18.2731L25.4089 22.2381C25.3127 22.2782 25.2215 22.3283 25.1405 22.3983L9.6875 35.2246V35.2296Z" fill="white"/>
<defs>
<linearGradient id="paint0_linear_707_1727" x1="30.6629" y1="13.6823" x2="32.4035" y2="17.1276" gradientUnits="userSpaceOnUse">
<stop stop-color="#03032E"/>
<stop offset="1" stop-color="#7373AE"/>
</linearGradient>
<linearGradient id="paint1_linear_707_1727" x1="19.5846" y1="11.1091" x2="26.3302" y2="-0.592011" gradientUnits="userSpaceOnUse">
<stop stop-color="#121213"/>
<stop offset="1" stop-color="#020231"/>
</linearGradient>
<linearGradient id="paint2_linear_707_1727" x1="6.66788" y1="26.3433" x2="8.8762" y2="29.6556" gradientUnits="userSpaceOnUse">
<stop stop-color="#121213"/>
<stop offset="1"/>
</linearGradient>
</defs>
</svg>
