<svg width="12" height="16" viewBox="0 0 12 16" fill="none" xmlns="http://www.w3.org/2000/svg">
<path d="M5.866 0C4.31024 0 2.8182 0.618023 1.71811 1.71811C0.618023 2.8182 0 4.31024 0 5.866C0 8.966 5.226 15.518 5.45 15.801C5.49994 15.8633 5.56325 15.9137 5.63526 15.9482C5.70726 15.9828 5.78612 16.0008 5.866 16.0008C5.94588 16.0008 6.02474 15.9828 6.09674 15.9482C6.16875 15.9137 6.23206 15.8633 6.282 15.801C6.506 15.518 11.732 8.965 11.732 5.866C11.732 4.31024 11.114 2.8182 10.0139 1.71811C8.9138 0.618023 7.42176 0 5.866 0ZM5.866 7.466C5.44418 7.4658 5.03188 7.34054 4.68124 7.10604C4.3306 6.87154 4.05737 6.53834 3.89608 6.14857C3.73479 5.7588 3.69269 5.32996 3.77511 4.91626C3.85752 4.50256 4.06075 4.12259 4.35909 3.82439C4.65744 3.52618 5.03751 3.32313 5.45124 3.24091C5.86497 3.15869 6.2938 3.20099 6.68349 3.36246C7.07319 3.52393 7.40626 3.79732 7.64059 4.14807C7.87493 4.49882 8 4.91118 8 5.333C8 5.61319 7.9448 5.89064 7.83754 6.14949C7.73028 6.40835 7.57308 6.64353 7.37491 6.84161C7.17673 7.03969 6.94147 7.19679 6.68257 7.30392C6.42367 7.41106 6.14619 7.46613 5.866 7.466Z" fill="#FFD550"/>
</svg>
