<svg width="17" height="15" viewBox="0 0 17 15" fill="none" xmlns="http://www.w3.org/2000/svg">
<path d="M16.3682 2.43269C16.321 2.35584 16.2533 2.29365 16.1728 2.25308C16.0922 2.21251 16.002 2.19516 15.9121 2.20297L15.0993 2.27366L15.8724 0.706481C15.9177 0.615492 15.9333 0.512585 15.9171 0.412242C15.9008 0.311899 15.8535 0.21917 15.7819 0.147111C15.7102 0.0750528 15.6177 0.0272907 15.5174 0.0105456C15.4172 -0.00619945 15.3142 0.00891781 15.223 0.0537672L13.1654 1.061C12.5325 0.732103 11.8136 0.605916 11.1065 0.699567C10.3994 0.793219 9.73819 1.10217 9.21268 1.5845C8.75801 2.01587 8.40544 2.54336 8.18073 3.12844C7.95602 3.71352 7.86485 4.34141 7.91388 4.96624C6.73758 4.84885 5.60936 4.4389 4.63209 3.77375C3.65482 3.10861 2.85958 2.20943 2.31887 1.15819C2.27994 1.08622 2.22348 1.02525 2.1547 0.980922C2.08593 0.936597 2.00708 0.910352 1.92546 0.904624C1.84384 0.898897 1.7621 0.913871 1.68781 0.948158C1.61352 0.982444 1.54909 1.03493 1.50049 1.10076C1.14417 1.60692 0.935627 2.20221 0.89818 2.82009C0.860733 3.43796 0.995855 4.05408 1.28844 4.59957C1.1283 4.55871 0.957117 4.50459 0.769365 4.44164C0.689897 4.41499 0.604887 4.40935 0.522594 4.42526C0.440301 4.44117 0.363523 4.4781 0.299719 4.53246C0.235915 4.58681 0.187256 4.65675 0.158468 4.73547C0.12968 4.81418 0.121742 4.89901 0.135426 4.9817C0.236779 5.64852 0.501612 6.27989 0.9063 6.81947C1.31099 7.35905 1.84295 7.79008 2.45472 8.07409C2.28787 8.13219 2.11743 8.17941 1.94447 8.21545C1.85985 8.2329 1.78142 8.2726 1.71725 8.33045C1.65308 8.3883 1.60549 8.46221 1.57939 8.54457C1.55328 8.62693 1.54961 8.71475 1.56874 8.799C1.58788 8.88326 1.62913 8.96088 1.68825 9.02389C2.57515 9.88095 3.68487 10.4718 4.89107 10.7291C3.74596 11.5247 2.34147 11.8559 0.961535 11.6557C0.865938 11.6523 0.77146 11.6772 0.68994 11.7272C0.60842 11.7773 0.543484 11.8503 0.503271 11.9371C0.463058 12.0239 0.449355 12.1206 0.463881 12.2152C0.478406 12.3097 0.520514 12.3979 0.584927 12.4686C1.28955 13.2417 3.85512 14.1252 6.54881 14.186C6.65557 14.186 6.76602 14.186 6.88014 14.186C9.15409 14.2959 11.3796 13.5046 13.0737 11.9837C14.376 10.7305 15.259 9.10534 15.6018 7.33081C15.7798 6.32263 15.7854 5.29155 15.6183 4.2815C15.6128 4.24174 15.6062 4.19977 15.6018 4.16333L16.3627 2.93742C16.4098 2.86186 16.4352 2.77483 16.4361 2.68583C16.4371 2.59682 16.4136 2.50926 16.3682 2.43269Z" fill="#FFD550"/>
</svg>
