<svg width="16" height="13" viewBox="0 0 16 13" fill="none" xmlns="http://www.w3.org/2000/svg">
<path d="M15.7161 0.312006C15.6447 0.261266 15.5607 0.231238 15.4734 0.225238C15.386 0.219238 15.2987 0.2375 15.2211 0.278006L0.985095 7.71201C0.902877 7.75506 0.835074 7.82127 0.790064 7.90243C0.745054 7.9836 0.724809 8.07618 0.73183 8.16872C0.738851 8.26127 0.77283 8.34973 0.829569 8.42318C0.886308 8.49663 0.963322 8.55184 1.0511 8.58201L5.0081 9.93501L13.4371 2.72401L6.9151 10.586L13.5481 12.853C13.5974 12.8695 13.6491 12.8779 13.7011 12.878C13.8141 12.8782 13.9235 12.838 14.0095 12.7647C14.0955 12.6913 14.1524 12.5896 14.1701 12.478L15.9101 0.769006C15.9231 0.682349 15.9118 0.593797 15.8776 0.513143C15.8433 0.432489 15.7874 0.362877 15.7161 0.312006Z" fill="#FFD550"/>
</svg>
