<svg width="100" height="100" viewBox="0 0 100 100" fill="none" xmlns="http://www.w3.org/2000/svg">
<circle cx="50" cy="50" r="49.25" stroke="#FFD550" stroke-width="1.5"/>
<path d="M27.698 57C27.5514 57 27.438 56.96 27.358 56.88C27.278 56.7867 27.238 56.6733 27.238 56.54V43.48C27.238 43.3333 27.278 43.22 27.358 43.14C27.438 43.0467 27.5514 43 27.698 43H32.778C33.7647 43 34.618 43.16 35.338 43.48C36.0714 43.8 36.638 44.28 37.038 44.92C37.438 45.5467 37.638 46.3333 37.638 47.28C37.638 48.2267 37.438 49.0133 37.038 49.64C36.638 50.2667 36.0714 50.74 35.338 51.06C34.618 51.38 33.7647 51.54 32.778 51.54H29.238V56.54C29.238 56.6733 29.1914 56.7867 29.098 56.88C29.018 56.96 28.9047 57 28.758 57H27.698ZM29.218 49.86H32.678C33.6647 49.86 34.4047 49.64 34.898 49.2C35.3914 48.76 35.638 48.12 35.638 47.28C35.638 46.4533 35.398 45.8133 34.918 45.36C34.438 44.9067 33.6914 44.68 32.678 44.68H29.218V49.86ZM40.5301 57C40.3834 57 40.2701 56.96 40.1901 56.88C40.1101 56.7867 40.0701 56.6733 40.0701 56.54V43.46C40.0701 43.3267 40.1101 43.22 40.1901 43.14C40.2701 43.0467 40.3834 43 40.5301 43H41.5901C41.7234 43 41.8301 43.0467 41.9101 43.14C41.9901 43.22 42.0301 43.3267 42.0301 43.46V55.26H48.6901C48.8367 55.26 48.9501 55.3067 49.0301 55.4C49.1101 55.48 49.1501 55.5933 49.1501 55.74V56.54C49.1501 56.6733 49.1101 56.7867 49.0301 56.88C48.9501 56.96 48.8367 57 48.6901 57H40.5301ZM50.3996 57C50.2929 57 50.1996 56.96 50.1196 56.88C50.0396 56.8 49.9996 56.7067 49.9996 56.6C49.9996 56.5333 50.0063 56.46 50.0196 56.38L54.9796 43.44C55.0329 43.3067 55.1063 43.2 55.1996 43.12C55.2929 43.04 55.4329 43 55.6196 43H56.9796C57.1529 43 57.2863 43.04 57.3796 43.12C57.4863 43.2 57.5663 43.3067 57.6196 43.44L62.5596 56.38C62.5863 56.46 62.5996 56.5333 62.5996 56.6C62.5996 56.7067 62.5596 56.8 62.4796 56.88C62.3996 56.96 62.3063 57 62.1996 57H61.1796C61.0196 57 60.8996 56.96 60.8196 56.88C60.7529 56.8 60.7063 56.7267 60.6796 56.66L59.5796 53.82H53.0196L51.9196 56.66C51.9063 56.7267 51.8596 56.8 51.7796 56.88C51.6996 56.96 51.5796 57 51.4196 57H50.3996ZM53.5996 52.1H58.9996L56.2996 45L53.5996 52.1ZM67.4927 57C67.3594 57 67.2461 56.96 67.1527 56.88C67.0727 56.7867 67.0327 56.6733 67.0327 56.54V51.82L62.2127 43.66C62.1994 43.62 62.1861 43.58 62.1727 43.54C62.1594 43.5 62.1527 43.4533 62.1527 43.4C62.1527 43.2933 62.1927 43.2 62.2727 43.12C62.3527 43.04 62.4461 43 62.5527 43H63.5927C63.7127 43 63.8194 43.0333 63.9127 43.1C64.0061 43.1533 64.0727 43.2333 64.1127 43.34L68.0127 49.82L71.9127 43.34C71.9794 43.2333 72.0527 43.1533 72.1327 43.1C72.2261 43.0333 72.3327 43 72.4527 43H73.4727C73.5927 43 73.6927 43.04 73.7727 43.12C73.8527 43.2 73.8927 43.2933 73.8927 43.4C73.8927 43.4533 73.8861 43.5 73.8727 43.54C73.8594 43.58 73.8394 43.62 73.8127 43.66L69.0127 51.82V56.54C69.0127 56.6733 68.9661 56.7867 68.8727 56.88C68.7927 56.96 68.6794 57 68.5327 57H67.4927Z" fill="#FFD550"/>
</svg>
