<svg width="14" height="7" viewBox="0 0 14 7" fill="none" xmlns="http://www.w3.org/2000/svg">
<path d="M11.2299 1.0734C11.1438 0.990753 11.0283 0.945653 10.909 0.947988C10.7896 0.950323 10.676 0.999902 10.5932 1.08585C10.5094 1.17093 10.4628 1.28575 10.4636 1.40514C10.4644 1.52453 10.5125 1.63874 10.5973 1.72271L12.4006 3.47957L7.53948 3.54545L2.22251 3.61478C2.17716 3.52915 2.11749 3.44852 2.04504 3.37794C1.66522 3.00789 1.04355 3.01932 0.673502 3.39915C0.303456 3.77897 0.311521 4.39736 0.691345 4.76741C1.07117 5.13746 1.69293 5.13267 2.06297 4.75285C2.13355 4.6804 2.19028 4.59908 2.23339 4.5123L7.55201 4.44295L12.4132 4.38205L10.6563 6.18533C10.5738 6.27135 10.5287 6.38653 10.5309 6.50569C10.5331 6.62486 10.5824 6.73832 10.6679 6.82126C10.753 6.90502 10.8678 6.95163 10.9872 6.95085C11.1066 6.95007 11.2208 6.90197 11.3048 6.81711L13.8229 4.23246C13.8647 4.18998 13.8977 4.13963 13.9199 4.08432C13.9422 4.02901 13.9532 3.96985 13.9524 3.91024C13.9517 3.85064 13.9391 3.79178 13.9154 3.73707C13.8917 3.68236 13.8575 3.63288 13.8146 3.5915L11.2299 1.0734Z" fill="white"/>
</svg>
