<svg width="10" height="10" viewBox="0 0 10 10" fill="none" xmlns="http://www.w3.org/2000/svg">
<path d="M5.00768 10.0055C4.86577 10.0063 4.72683 9.96485 4.60857 9.8864C4.49031 9.80795 4.3981 9.69606 4.34368 9.565C4.28926 9.43394 4.27511 9.28964 4.30302 9.1505C4.33093 9.01136 4.39965 8.88368 4.50041 8.78375L8.28704 5.00426L4.50041 1.22478C4.38336 1.0881 4.3222 0.912288 4.32915 0.732476C4.33609 0.552664 4.41063 0.382095 4.53787 0.254854C4.66512 0.127612 4.83568 0.0530715 5.0155 0.0461261C5.19531 0.0391807 5.37112 0.100343 5.5078 0.21739L9.79455 4.50414C9.92762 4.63801 10.0023 4.81909 10.0023 5.00784C10.0023 5.19659 9.92762 5.37767 9.79455 5.51153L5.5078 9.79828C5.37472 9.93027 5.19511 10.0047 5.00768 10.0055Z" fill="#121213"/>
<path d="M0.718614 10.0053C0.576705 10.0062 0.437765 9.96472 0.319508 9.88627C0.201251 9.80782 0.109035 9.69593 0.0546167 9.56487C0.000198702 9.43381 -0.0139558 9.28951 0.0139579 9.15037C0.0418715 9.01123 0.110589 8.88355 0.211348 8.78362L3.99798 5.00413L0.211348 1.22465C0.0768129 1.09011 0.00123175 0.907644 0.00123175 0.717382C0.00123175 0.527121 0.0768129 0.344652 0.211348 0.210116C0.345883 0.0755812 0.528352 1.41756e-09 0.718614 0C0.908875 -1.41756e-09 1.09134 0.0755812 1.22588 0.210116L5.51263 4.49687C5.6457 4.63073 5.72039 4.81181 5.72039 5.00056C5.72039 5.18931 5.6457 5.37039 5.51263 5.50426L1.22588 9.79101C1.15971 9.85852 1.0808 9.91222 0.993727 9.94901C0.906652 9.98581 0.813142 10.005 0.718614 10.0053Z" fill="#121213"/>
</svg>
