<svg width="213" height="140" viewBox="0 0 213 140" fill="none" xmlns="http://www.w3.org/2000/svg">
<path opacity="0.1" d="M84.995 140C88.3686 140 91.2603 138.791 93.6701 136.373C95.5979 133.955 96.5618 131.054 96.5618 127.668C96.5618 123.8 95.8388 119.931 94.393 116.062L56.0781 16.684C53.6684 11.848 51.2586 7.97931 48.8489 5.07776C45.9572 1.6926 41.3787 0 35.1134 0L11.2569 1.52588e-05C7.40134 1.52588e-05 4.50965 1.45078 2.58186 4.35233C0.172122 7.25391 -0.550798 11.1227 0.4131 15.9586L16.3174 118.964C16.7993 124.767 18.7271 129.845 22.1008 134.197C25.4744 138.066 30.5349 140 37.2821 140L84.995 140ZM200.663 140C204.036 140 206.928 138.791 209.338 136.373C211.265 133.955 212.229 131.054 212.229 127.668C212.229 123.8 211.506 119.931 210.061 116.062L171.746 16.684C169.336 11.848 166.685 7.97929 163.794 5.07774C160.902 1.69258 156.564 0 150.781 0H126.924C123.069 0 120.177 1.45076 118.249 4.35231C115.84 7.25389 115.117 11.1226 116.081 15.9586L131.985 118.964C132.467 124.767 134.395 129.845 137.768 134.197C141.142 138.066 145.961 140 152.227 140L200.663 140Z" fill="#FFD550"/>
</svg>
